<svg width="158" height="28" viewBox="0 0 158 28" fill="none" xmlns="http://www.w3.org/2000/svg" xmlns:xlink="http://www.w3.org/1999/xlink">
<path d="M0,26.6L0,1L8.537,1C10.239,1 11.642,1.308 12.747,1.925C13.852,2.533 14.674,3.354 15.215,4.387C15.755,5.413 16.026,6.55 16.026,7.8C16.026,8.9 15.839,9.808 15.465,10.525C15.1,11.242 14.615,11.808 14.011,12.225C13.414,12.642 12.766,12.95 12.067,13.15L12.067,13.4C12.814,13.45 13.565,13.725 14.321,14.225C15.076,14.725 15.708,15.442 16.216,16.375C16.725,17.308 16.98,18.45 16.98,19.8C16.98,21.083 16.701,22.237 16.145,23.262C15.588,24.288 14.71,25.1 13.51,25.7C12.309,26.3 10.747,26.6 8.824,26.6L0,26.6ZM2.957,23.85L8.824,23.85C10.755,23.85 12.127,23.458 12.937,22.675C13.756,21.883 14.166,20.925 14.166,19.8C14.166,18.933 13.955,18.133 13.534,17.4C13.112,16.658 12.512,16.067 11.733,15.625C10.954,15.175 10.032,14.95 8.967,14.95L2.957,14.95L2.957,23.85ZM2.957,12.25L8.442,12.25C9.332,12.25 10.135,12.067 10.851,11.7C11.574,11.333 12.146,10.817 12.568,10.15C12.997,9.483 13.212,8.7 13.212,7.8C13.212,6.675 12.838,5.721 12.091,4.938C11.344,4.146 10.159,3.75 8.537,3.75L2.957,3.75L2.957,12.25Z" fill="#00ABFF"/>
<path d="M28.897,27C27.244,27 25.793,26.587 24.545,25.763C23.305,24.938 22.335,23.783 21.636,22.3C20.944,20.817 20.598,19.083 20.598,17.1C20.598,15.1 20.944,13.354 21.636,11.863C22.335,10.371 23.305,9.212 24.545,8.387C25.793,7.563 27.244,7.15 28.897,7.15C30.551,7.15 31.998,7.563 33.238,8.387C34.486,9.212 35.456,10.371 36.147,11.863C36.847,13.354 37.196,15.1 37.196,17.1C37.196,19.083 36.847,20.817 36.147,22.3C35.456,23.783 34.486,24.938 33.238,25.763C31.998,26.587 30.551,27 28.897,27ZM28.897,24.35C30.153,24.35 31.187,24.012 31.998,23.337C32.808,22.662 33.409,21.775 33.798,20.675C34.188,19.575 34.382,18.383 34.382,17.1C34.382,15.817 34.188,14.621 33.798,13.512C33.409,12.404 32.808,11.508 31.998,10.825C31.187,10.142 30.153,9.8 28.897,9.8C27.641,9.8 26.608,10.142 25.797,10.825C24.986,11.508 24.386,12.404 23.997,13.512C23.607,14.621 23.412,15.817 23.412,17.1C23.412,18.383 23.607,19.575 23.997,20.675C24.386,21.775 24.986,22.662 25.797,23.337C26.608,24.012 27.641,24.35 28.897,24.35Z" fill="#00ABFF"/>
<path d="M48.933,27C47.279,27 45.828,26.587 44.58,25.763C43.34,24.938 42.37,23.783 41.671,22.3C40.979,20.817 40.634,19.083 40.634,17.1C40.634,15.1 40.979,13.354 41.671,11.863C42.37,10.371 43.34,9.212 44.58,8.387C45.828,7.563 47.279,7.15 48.933,7.15C50.586,7.15 52.033,7.563 53.273,8.387C54.521,9.212 55.491,10.371 56.182,11.863C56.882,13.354 57.232,15.1 57.232,17.1C57.232,19.083 56.882,20.817 56.182,22.3C55.491,23.783 54.521,24.938 53.273,25.763C52.033,26.587 50.586,27 48.933,27ZM48.933,24.35C50.188,24.35 51.222,24.012 52.033,23.337C52.844,22.662 53.444,21.775 53.833,20.675C54.223,19.575 54.417,18.383 54.417,17.1C54.417,15.817 54.223,14.621 53.833,13.512C53.444,12.404 52.844,11.508 52.033,10.825C51.222,10.142 50.188,9.8 48.933,9.8C47.677,9.8 46.643,10.142 45.832,10.825C45.021,11.508 44.421,12.404 44.032,13.512C43.642,14.621 43.448,15.817 43.448,17.1C43.448,18.383 43.642,19.575 44.032,20.675C44.421,21.775 45.021,22.662 45.832,23.337C46.643,24.012 47.677,24.35 48.933,24.35Z" fill="#00ABFF"/>
<path d="M64.15,19.6L64.103,15.95L64.675,15.95L72.688,7.4L76.17,7.4L67.632,16.45L67.394,16.45L64.15,19.6ZM61.527,26.6L61.527,1L64.341,1L64.341,26.6L61.527,26.6ZM73.165,26.6L66.01,17.1L68.014,15.05L76.742,26.6L73.165,26.6Z" fill="#00ABFF"/>
<path d="M89.617,26.6L89.617,1L97.868,1C99.776,1 101.342,1.342 102.566,2.025C103.79,2.7 104.696,3.629 105.285,4.813C105.873,5.996 106.167,7.342 106.167,8.85C106.167,10.358 105.873,11.696 105.285,12.863C104.696,14.029 103.794,14.946 102.578,15.613C101.362,16.271 99.808,16.6 97.916,16.6L91.238,16.6L91.238,13.8L97.82,13.8C99.124,13.8 100.173,13.6 100.968,13.2C101.771,12.8 102.351,12.233 102.709,11.5C103.075,10.758 103.258,9.875 103.258,8.85C103.258,7.825 103.075,6.929 102.709,6.163C102.343,5.396 101.759,4.804 100.956,4.387C100.153,3.962 99.092,3.75 97.773,3.75L92.574,3.75L92.574,26.6L89.617,26.6ZM101.111,15.1L107.121,26.6L103.687,26.6L97.773,15.1L101.111,15.1Z" fill="#00ABFF"/>
<path d="M118.195,27C116.43,27 114.908,26.592 113.628,25.775C112.356,24.95 111.375,23.8 110.683,22.325C110,20.842 109.658,19.117 109.658,17.15C109.658,15.183 110,13.45 110.683,11.95C111.375,10.442 112.337,9.267 113.569,8.425C114.809,7.575 116.256,7.15 117.909,7.15C118.863,7.15 119.805,7.317 120.735,7.65C121.665,7.983 122.512,8.525 123.275,9.275C124.038,10.017 124.646,11 125.099,12.225C125.552,13.45 125.779,14.958 125.779,16.75L125.779,18L111.661,18L111.661,15.45L122.917,15.45C122.917,14.367 122.71,13.4 122.297,12.55C121.892,11.7 121.311,11.029 120.556,10.538C119.809,10.046 118.927,9.8 117.909,9.8C116.788,9.8 115.818,10.092 115,10.675C114.189,11.25 113.565,12 113.128,12.925C112.69,13.85 112.472,14.842 112.472,15.9L112.472,17.6C112.472,19.05 112.71,20.279 113.187,21.288C113.672,22.288 114.344,23.05 115.202,23.575C116.061,24.092 117.058,24.35 118.195,24.35C118.934,24.35 119.602,24.242 120.198,24.025C120.803,23.8 121.323,23.467 121.76,23.025C122.198,22.575 122.535,22.017 122.774,21.35L125.493,22.15C125.206,23.117 124.725,23.967 124.05,24.7C123.374,25.425 122.539,25.992 121.546,26.4C120.552,26.8 119.435,27 118.195,27Z" fill="#00ABFF"/>
<path d="M132.873,15.05L132.873,26.6L130.059,26.6L130.059,7.4L132.778,7.4L132.778,10.4L133.017,10.4C133.446,9.425 134.098,8.642 134.972,8.05C135.846,7.45 136.975,7.15 138.358,7.15C139.599,7.15 140.684,7.417 141.614,7.95C142.544,8.475 143.267,9.275 143.784,10.35C144.3,11.417 144.559,12.767 144.559,14.4L144.559,26.6L141.745,26.6L141.745,14.6C141.745,13.092 141.371,11.917 140.624,11.075C139.877,10.225 138.851,9.8 137.548,9.8C136.649,9.8 135.846,10.004 135.139,10.413C134.439,10.821 133.887,11.417 133.482,12.2C133.076,12.983 132.873,13.933 132.873,15.05Z" fill="#00ABFF"/>
<path d="M157.666,7.4L157.666,9.9L148.175,9.9L148.175,7.4L157.666,7.4ZM150.941,2.8L153.755,2.8L153.755,21.1C153.755,21.933 153.87,22.558 154.101,22.975C154.339,23.383 154.641,23.658 155.007,23.8C155.381,23.933 155.774,24 156.188,24C156.498,24 156.752,23.983 156.951,23.95C157.149,23.908 157.308,23.875 157.428,23.85L158,26.5C157.809,26.575 157.543,26.65 157.201,26.725C156.859,26.808 156.426,26.85 155.901,26.85C155.106,26.85 154.327,26.671 153.564,26.312C152.809,25.954 152.181,25.408 151.68,24.675C151.188,23.942 150.941,23.017 150.941,21.9L150.941,2.8Z" fill="#00ABFF"/>
</svg>
