<svg width="248" height="42" viewBox="0 0 248 42" fill="none" xmlns="http://www.w3.org/2000/svg" xmlns:xlink="http://www.w3.org/1999/xlink">
<path d="M-0.571,39.8L-0.571,-0.429L12.845,-0.429C15.518,-0.429 17.723,0.056 19.459,1.025C21.196,1.981 22.488,3.271 23.338,4.895C24.187,6.505 24.612,8.293 24.612,10.257C24.612,11.986 24.318,13.413 23.731,14.539C23.157,15.665 22.395,16.556 21.445,17.211C20.508,17.865 19.49,18.35 18.391,18.664L18.391,19.057C19.565,19.136 20.746,19.568 21.933,20.353C23.119,21.139 24.112,22.265 24.912,23.732C25.711,25.199 26.111,26.993 26.111,29.114C26.111,31.131 25.674,32.944 24.799,34.555C23.925,36.166 22.545,37.443 20.658,38.385C18.772,39.328 16.317,39.8 13.294,39.8L-0.571,39.8ZM4.076,35.478L13.294,35.478C16.33,35.478 18.485,34.863 19.759,33.632C21.046,32.388 21.689,30.882 21.689,29.114C21.689,27.752 21.358,26.495 20.696,25.343C20.034,24.177 19.091,23.247 17.866,22.553C16.642,21.846 15.193,21.493 13.519,21.493L4.076,21.493L4.076,35.478ZM4.076,17.25L12.695,17.25C14.094,17.25 15.356,16.962 16.48,16.386C17.617,15.809 18.516,14.997 19.178,13.95C19.853,12.902 20.19,11.671 20.19,10.257C20.19,8.489 19.603,6.99 18.429,5.759C17.254,4.515 15.393,3.893 12.845,3.893L4.076,3.893L4.076,17.25Z" fill="#000000"/>
<path d="M44.839,40.428C42.241,40.428 39.961,39.78 38,38.484C36.051,37.187 34.527,35.374 33.428,33.043C32.341,30.712 31.798,27.988 31.798,24.871C31.798,21.728 32.341,18.985 33.428,16.641C34.527,14.297 36.051,12.477 38,11.18C39.961,9.884 42.241,9.236 44.839,9.236C47.437,9.236 49.711,9.884 51.66,11.18C53.621,12.477 55.145,14.297 56.231,16.641C57.331,18.985 57.88,21.728 57.88,24.871C57.88,27.988 57.331,30.712 56.231,33.043C55.145,35.374 53.621,37.187 51.66,38.484C49.711,39.78 47.437,40.428 44.839,40.428ZM44.839,36.264C46.813,36.264 48.437,35.734 49.711,34.673C50.985,33.612 51.928,32.218 52.54,30.489C53.152,28.76 53.458,26.888 53.458,24.871C53.458,22.855 53.152,20.975 52.54,19.234C51.928,17.492 50.985,16.084 49.711,15.011C48.437,13.937 46.813,13.4 44.839,13.4C42.865,13.4 41.241,13.937 39.967,15.011C38.693,16.084 37.75,17.492 37.138,19.234C36.526,20.975 36.22,22.855 36.22,24.871C36.22,26.888 36.526,28.76 37.138,30.489C37.75,32.218 38.693,33.612 39.967,34.673C41.241,35.734 42.865,36.264 44.839,36.264Z" fill="#000000"/>
<path d="M76.323,40.428C73.724,40.428 71.445,39.78 69.484,38.484C67.535,37.187 66.011,35.374 64.912,33.043C63.825,30.712 63.281,27.988 63.281,24.871C63.281,21.728 63.825,18.985 64.912,16.641C66.011,14.297 67.535,12.477 69.484,11.18C71.445,9.884 73.724,9.236 76.323,9.236C78.921,9.236 81.195,9.884 83.143,11.18C85.104,12.477 86.628,14.297 87.715,16.641C88.814,18.985 89.364,21.728 89.364,24.871C89.364,27.988 88.814,30.712 87.715,33.043C86.628,35.374 85.104,37.187 83.143,38.484C81.195,39.78 78.921,40.428 76.323,40.428ZM76.323,36.264C78.296,36.264 79.92,35.734 81.195,34.673C82.469,33.612 83.412,32.218 84.024,30.489C84.636,28.76 84.942,26.888 84.942,24.871C84.942,22.855 84.636,20.975 84.024,19.234C83.412,17.492 82.469,16.084 81.195,15.011C79.92,13.937 78.296,13.4 76.323,13.4C74.349,13.4 72.725,13.937 71.451,15.011C70.177,16.084 69.234,17.492 68.622,19.234C68.01,20.975 67.704,22.855 67.704,24.871C67.704,26.888 68.01,28.76 68.622,30.489C69.234,32.218 70.177,33.612 71.451,34.673C72.725,35.734 74.349,36.264 76.323,36.264Z" fill="#000000"/>
<path d="M100.236,28.8L100.162,23.064L101.061,23.064L113.653,9.628L119.124,9.628L105.708,23.85L105.333,23.85L100.236,28.8ZM96.114,39.8L96.114,-0.429L100.536,-0.429L100.536,39.8L96.114,39.8ZM114.402,39.8L103.16,24.871L106.307,21.65L120.023,39.8L114.402,39.8Z" fill="#000000"/>
<path d="M140.255,39.8L140.255,-0.429L153.221,-0.429C156.219,-0.429 158.68,0.108 160.604,1.182C162.528,2.243 163.952,3.703 164.876,5.562C165.8,7.422 166.263,9.537 166.263,11.907C166.263,14.277 165.8,16.379 164.876,18.212C163.952,20.046 162.534,21.486 160.623,22.534C158.711,23.568 156.269,24.085 153.296,24.085L142.803,24.085L142.803,19.685L153.146,19.685C155.195,19.685 156.844,19.371 158.093,18.743C159.355,18.114 160.267,17.224 160.829,16.071C161.403,14.906 161.691,13.518 161.691,11.907C161.691,10.296 161.403,8.889 160.829,7.684C160.254,6.479 159.336,5.549 158.074,4.895C156.813,4.227 155.145,3.893 153.072,3.893L144.902,3.893L144.902,39.8L140.255,39.8ZM158.318,21.728L167.762,39.8L162.365,39.8L153.072,21.728L158.318,21.728Z" fill="#000000"/>
<path d="M185.164,40.428C182.391,40.428 179.999,39.787 177.988,38.503C175.989,37.207 174.446,35.4 173.36,33.082C172.285,30.751 171.748,28.04 171.748,24.95C171.748,21.859 172.285,19.136 173.36,16.778C174.446,14.408 175.958,12.562 177.894,11.239C179.843,9.903 182.116,9.236 184.714,9.236C186.213,9.236 187.694,9.497 189.155,10.021C190.617,10.545 191.947,11.396 193.146,12.575C194.345,13.74 195.301,15.286 196.013,17.211C196.725,19.136 197.081,21.506 197.081,24.321L197.081,26.285L174.896,26.285L174.896,22.278L192.584,22.278C192.584,20.576 192.259,19.057 191.61,17.721C190.973,16.386 190.061,15.331 188.874,14.559C187.7,13.786 186.313,13.4 184.714,13.4C182.953,13.4 181.429,13.858 180.142,14.775C178.868,15.678 177.888,16.857 177.201,18.311C176.514,19.764 176.17,21.322 176.17,22.985L176.17,25.657C176.17,27.935 176.545,29.867 177.294,31.452C178.056,33.023 179.112,34.221 180.461,35.046C181.81,35.858 183.378,36.264 185.164,36.264C186.326,36.264 187.375,36.094 188.312,35.753C189.261,35.4 190.08,34.876 190.767,34.182C191.454,33.475 191.985,32.597 192.359,31.55L196.631,32.807C196.182,34.326 195.426,35.662 194.364,36.814C193.302,37.953 191.991,38.844 190.429,39.485C188.868,40.114 187.113,40.428 185.164,40.428Z" fill="#000000"/>
<path d="M208.231,21.65L208.231,39.8L203.809,39.8L203.809,9.628L208.081,9.628L208.081,14.343L208.455,14.343C209.129,12.811 210.153,11.58 211.527,10.65C212.903,9.707 214.675,9.236 216.849,9.236C218.799,9.236 220.503,9.655 221.965,10.493C223.427,11.318 224.563,12.575 225.375,14.264C226.187,15.94 226.593,18.062 226.593,20.628L226.593,39.8L222.171,39.8L222.171,20.943C222.171,18.572 221.583,16.726 220.409,15.403C219.235,14.068 217.623,13.4 215.575,13.4C214.163,13.4 212.903,13.721 211.791,14.362C210.691,15.004 209.823,15.94 209.185,17.171C208.549,18.402 208.231,19.895 208.231,21.65Z" fill="#000000"/>
<path d="M247.191,9.628L247.191,13.557L232.275,13.557L232.275,9.628L247.191,9.628ZM236.623,2.4L241.045,2.4L241.045,31.157C241.045,32.466 241.225,33.449 241.587,34.103C241.963,34.745 242.437,35.177 243.011,35.4C243.599,35.609 244.217,35.714 244.867,35.714C245.353,35.714 245.753,35.688 246.065,35.635C246.379,35.57 246.627,35.518 246.815,35.478L247.715,39.643C247.415,39.76 246.997,39.878 246.459,39.996C245.923,40.127 245.241,40.193 244.417,40.193C243.167,40.193 241.943,39.911 240.745,39.348C239.557,38.785 238.571,37.927 237.783,36.775C237.009,35.622 236.623,34.169 236.623,32.414L236.623,2.4Z" fill="#000000"/>
</svg>
