<svg width="48" height="36" viewBox="0 0 48 36" fill="none" xmlns="http://www.w3.org/2000/svg" xmlns:xlink="http://www.w3.org/1999/xlink">
<path d="M24,23.4C27.535,23.4 30.4,20.534 30.4,17C30.4,13.465 27.535,10.6 24,10.6C20.465,10.6 17.6,13.465 17.6,17C17.6,20.534 20.465,23.4 24,23.4Z" fill="#000000"/>
<path d="M47.904,16.456C46.022,11.588 42.755,7.378 38.507,4.347C34.259,1.316 29.215,-0.404 24,-0.6C18.785,-0.404 13.742,1.316 9.493,4.347C5.245,7.378 1.978,11.588 0.096,16.456C-0.031,16.807 -0.031,17.192 0.096,17.544C1.978,22.412 5.245,26.621 9.493,29.653C13.742,32.684 18.785,34.404 24,34.6C29.215,34.404 34.259,32.684 38.507,29.653C42.755,26.621 46.022,22.412 47.904,17.544C48.031,17.192 48.031,16.807 47.904,16.456ZM24,27.4C21.943,27.4 19.933,26.79 18.222,25.647C16.512,24.505 15.179,22.88 14.392,20.98C13.605,19.079 13.399,16.988 13.8,14.971C14.201,12.954 15.192,11.1 16.646,9.646C18.101,8.192 19.954,7.201 21.971,6.8C23.989,6.398 26.08,6.604 27.98,7.392C29.881,8.179 31.505,9.512 32.648,11.222C33.79,12.932 34.4,14.943 34.4,17C34.396,19.757 33.299,22.4 31.35,24.349C29.4,26.299 26.757,27.396 24,27.4Z" fill="#000000"/>
</svg>
