<svg width="36" height="36" viewBox="0 0 36 36" fill="none" xmlns="http://www.w3.org/2000/svg" xmlns:xlink="http://www.w3.org/1999/xlink">
<path d="M25,23L23.42,23L22.86,22.46C24.82,20.18 26,17.22 26,14C26,6.82 20.18,1 13,1C5.82,1 0,6.82 0,14C0,21.18 5.82,27 13,27C16.22,27 19.18,25.82 21.46,23.86L22,24.42L22,26L32,35.98L34.98,33L25,23ZM13,23C8.02,23 4,18.98 4,14C4,9.02 8.02,5 13,5C17.98,5 22,9.02 22,14C22,18.98 17.98,23 13,23Z" clip-rule="evenodd" fill-rule="evenodd" fill="#000000" fill-opacity="0.6"/>
</svg>
