<svg width="48" height="48" viewBox="0 0 48 48" fill="none" xmlns="http://www.w3.org/2000/svg" xmlns:xlink="http://www.w3.org/1999/xlink">
<path d="M24,4L24,2.5L24,4ZM12,16L10.5,16L12,16ZM6,34L5.168,32.752C4.618,33.119 4.373,33.802 4.564,34.435C4.756,35.067 5.339,35.5 6,35.5L6,34ZM42,34L42,35.5C42.661,35.5 43.244,35.067 43.436,34.435C43.627,33.802 43.382,33.119 42.832,32.752L42,34ZM37.5,16C37.5,12.42 36.078,8.986 33.546,6.454L31.425,8.575C33.394,10.545 34.5,13.215 34.5,16L37.5,16ZM33.546,6.454C31.014,3.922 27.58,2.5 24,2.5L24,5.5C26.785,5.5 29.455,6.606 31.425,8.575L33.546,6.454ZM24,2.5C20.42,2.5 16.986,3.922 14.454,6.454L16.575,8.575C18.545,6.606 21.215,5.5 24,5.5L24,2.5ZM14.454,6.454C11.922,8.986 10.5,12.42 10.5,16L13.5,16C13.5,13.215 14.606,10.545 16.575,8.575L14.454,6.454ZM10.5,16C10.5,22.779 9.049,27.027 7.683,29.532C6.998,30.788 6.326,31.621 5.849,32.125C5.61,32.377 5.418,32.548 5.298,32.648C5.237,32.699 5.194,32.732 5.172,32.748C5.16,32.757 5.154,32.761 5.153,32.762C5.153,32.762 5.154,32.761 5.157,32.76C5.158,32.759 5.159,32.758 5.161,32.756C5.162,32.756 5.163,32.755 5.164,32.754C5.165,32.754 5.166,32.753 5.166,32.753C5.167,32.753 5.168,32.752 6,34C6.832,35.248 6.833,35.247 6.834,35.247C6.834,35.246 6.836,35.246 6.836,35.245C6.838,35.244 6.839,35.243 6.841,35.242C6.844,35.24 6.848,35.237 6.852,35.234C6.86,35.229 6.87,35.222 6.881,35.214C6.903,35.199 6.93,35.179 6.963,35.155C7.028,35.106 7.114,35.039 7.218,34.953C7.425,34.78 7.703,34.529 8.026,34.188C8.674,33.504 9.502,32.462 10.317,30.968C11.951,27.973 13.5,23.221 13.5,16L10.5,16ZM6,35.5L42,35.5L42,32.5L6,32.5L6,35.5ZM42,34C42.832,32.752 42.833,32.753 42.834,32.753C42.834,32.753 42.835,32.754 42.836,32.754C42.837,32.755 42.838,32.756 42.839,32.756C42.841,32.758 42.842,32.759 42.843,32.76C42.846,32.761 42.847,32.762 42.847,32.762C42.846,32.761 42.84,32.757 42.828,32.748C42.806,32.732 42.763,32.699 42.702,32.648C42.582,32.548 42.39,32.377 42.151,32.125C41.674,31.621 41.002,30.788 40.317,29.532C38.951,27.027 37.5,22.779 37.5,16L34.5,16C34.5,23.221 36.049,27.973 37.683,30.968C38.498,32.462 39.326,33.504 39.974,34.188C40.297,34.529 40.575,34.78 40.782,34.953C40.886,35.039 40.972,35.106 41.037,35.155C41.07,35.179 41.097,35.199 41.119,35.214C41.13,35.222 41.14,35.229 41.148,35.234C41.152,35.237 41.156,35.24 41.159,35.242C41.161,35.243 41.162,35.244 41.164,35.245C41.164,35.246 41.166,35.246 41.166,35.247C41.167,35.247 41.168,35.248 42,34Z" fill="#FFFFFF" fill-opacity="0.75"/>
<path d="M28.758,42.753C29.173,42.036 28.929,41.118 28.213,40.703C27.496,40.287 26.578,40.531 26.163,41.247L28.758,42.753ZM21.838,41.247C21.422,40.531 20.504,40.287 19.787,40.703C19.071,41.118 18.827,42.036 19.243,42.753L21.838,41.247ZM26.163,41.247C25.943,41.626 25.627,41.941 25.248,42.159L26.745,44.759C27.58,44.278 28.274,43.586 28.758,42.753L26.163,41.247ZM25.248,42.159C24.868,42.378 24.438,42.493 24,42.493L24,45.493C24.964,45.493 25.91,45.24 26.745,44.759L25.248,42.159ZM24,42.493C23.562,42.493 23.132,42.378 22.752,42.159L21.255,44.759C22.09,45.24 23.036,45.493 24,45.493L24,42.493ZM22.752,42.159C22.373,41.941 22.057,41.626 21.838,41.247L19.243,42.753C19.726,43.586 20.42,44.278 21.255,44.759L22.752,42.159Z" fill="#FFFFFF" fill-opacity="0.75"/>
</svg>
