<svg width="1316" height="246" viewBox="0 0 1316 246" fill="none" xmlns="http://www.w3.org/2000/svg" xmlns:xlink="http://www.w3.org/1999/xlink">
<path d="M13.509,27.079L2,2L2,246L1314,246L1314,14.592L1302.492,26.783C1290.982,38.974 1267.964,63.355 1244.948,67.713C1221.93,72.071 1198.912,56.404 1175.894,49.046C1152.878,41.687 1129.86,42.636 1106.842,36.262C1083.824,29.888 1060.808,16.191 1037.79,11.126C1014.772,6.06 991.754,9.626 968.736,24.852C945.72,40.079 922.702,66.965 899.684,60.887C876.666,54.81 853.65,15.768 830.632,9.602C807.614,3.435 784.596,30.144 761.578,33.199C738.562,36.254 715.544,15.654 692.526,22.545C669.508,29.435 646.492,63.816 623.474,86.057C600.456,108.299 577.438,118.401 554.422,119.549C531.404,120.697 508.386,112.891 485.368,100.599C462.35,88.307 439.334,71.531 416.316,77.469C393.298,83.408 370.28,112.061 347.264,107.436C324.246,102.811 301.228,64.906 278.21,38.389C255.192,11.871 232.176,-3.259 209.158,5.546C186.14,14.351 163.123,47.092 140.105,75.569C117.088,104.047 94.07,128.261 71.053,115.289C48.035,102.316 25.018,52.158 13.509,27.079Z" fill="url(#pf_0_1_7994)"/>
<g opacity="0.5">
<path d="M1.024,135.061C0.395,135.6 0.322,136.546 0.861,137.176C1.4,137.805 2.346,137.878 2.976,137.339L1.024,135.061ZM70.925,98.918L71.085,100.409L70.925,98.918ZM306.722,108.212L306.674,109.711L306.722,108.212ZM421.598,32.54L421.536,34.039L421.598,32.54ZM514.708,66.748L514.632,65.25L514.708,66.748ZM725.112,125.834L725.4,124.362L725.4,124.362L725.112,125.834ZM862.962,97.846L862.646,96.38L862.962,97.846ZM992.348,101.993L992.55,103.479L992.55,103.479L992.348,101.993ZM1264.422,108.212L1264.376,106.713L1264.422,108.212ZM1313.302,119.966C1314.034,120.352 1314.942,120.071 1315.328,119.338C1315.714,118.605 1315.432,117.698 1314.698,117.312L1313.302,119.966ZM5.982,134.862C6.627,134.343 6.728,133.398 6.208,132.753C5.688,132.108 4.744,132.007 4.099,132.527L5.982,134.862ZM10.387,127.622C9.726,128.122 9.596,129.063 10.095,129.723C10.595,130.384 11.536,130.515 12.197,130.015L10.387,127.622ZM18.558,125.347C19.233,124.867 19.391,123.93 18.91,123.256C18.43,122.581 17.494,122.423 16.819,122.903L18.558,125.347ZM23.385,118.378C22.696,118.838 22.509,119.769 22.969,120.458C23.428,121.148 24.359,121.334 25.049,120.875L23.385,118.378ZM31.682,116.615C32.387,116.18 32.606,115.256 32.171,114.551C31.736,113.846 30.811,113.627 30.107,114.062L31.682,116.615ZM36.983,110.004C36.261,110.41 36.005,111.324 36.411,112.046C36.817,112.768 37.731,113.025 38.454,112.619L36.983,110.004ZM45.389,108.936C46.131,108.567 46.433,107.666 46.063,106.925C45.694,106.183 44.793,105.881 44.052,106.251L45.389,108.936ZM51.341,102.894C50.578,103.215 50.219,104.095 50.54,104.858C50.861,105.622 51.741,105.98 52.504,105.659L51.341,102.894ZM59.805,102.932C60.593,102.678 61.026,101.832 60.771,101.044C60.517,100.256 59.672,99.823 58.883,100.077L59.805,102.932ZM66.734,98.033C65.921,98.189 65.388,98.975 65.544,99.789C65.7,100.603 66.486,101.136 67.299,100.98L66.734,98.033ZM74.886,100.079C75.713,100.025 76.339,99.311 76.285,98.484C76.231,97.657 75.518,97.031 74.691,97.085L74.886,100.079ZM82.555,96.984C81.727,96.945 81.025,97.585 80.987,98.413C80.948,99.24 81.587,99.942 82.415,99.981L82.555,96.984ZM89.843,100.878C90.655,101.041 91.446,100.515 91.609,99.703C91.772,98.89 91.246,98.1 90.434,97.937L89.843,100.878ZM98.049,100.038C97.265,99.772 96.413,100.193 96.147,100.977C95.882,101.762 96.302,102.613 97.087,102.879L98.049,100.038ZM104.354,105.45C105.138,105.718 105.991,105.3 106.259,104.516C106.527,103.733 106.109,102.88 105.325,102.612L104.354,105.45ZM112.582,104.741C111.776,104.55 110.967,105.049 110.776,105.855C110.585,106.661 111.084,107.47 111.89,107.661L112.582,104.741ZM119.638,109.042C120.46,109.144 121.209,108.56 121.31,107.737C121.411,106.915 120.827,106.166 120.005,106.065L119.638,109.042ZM127.562,106.646C126.734,106.617 126.039,107.265 126.01,108.093C125.981,108.921 126.629,109.616 127.457,109.645L127.562,106.646ZM135.772,109.426C136.593,109.313 137.167,108.556 137.054,107.736C136.942,106.915 136.185,106.341 135.364,106.454L135.772,109.426ZM142.673,104.054C141.954,104.465 141.704,105.381 142.115,106.101C142.526,106.82 143.442,107.07 144.162,106.659L142.673,104.054ZM150.842,100.902C151.372,100.266 151.286,99.32 150.65,98.789C150.014,98.259 149.068,98.345 148.537,98.981L150.842,100.902ZM153.144,92.308C152.712,93.014 152.934,93.938 153.641,94.37C154.347,94.802 155.271,94.58 155.703,93.873L153.144,92.308ZM160.044,86.812C160.497,86.118 160.301,85.189 159.608,84.736C158.914,84.284 157.984,84.479 157.532,85.173L160.044,86.812ZM162.696,78.348C162.14,78.962 162.188,79.911 162.803,80.467C163.417,81.022 164.366,80.974 164.921,80.36L162.696,78.348ZM170.893,75.1C171.576,74.631 171.75,73.697 171.281,73.014C170.812,72.331 169.879,72.158 169.196,72.626L170.893,75.1ZM176.868,68.618C176.095,68.916 175.709,69.783 176.007,70.557C176.304,71.33 177.172,71.716 177.945,71.418L176.868,68.618ZM185.721,69.266C186.535,69.116 187.073,68.333 186.923,67.519C186.772,66.704 185.99,66.166 185.175,66.316L185.721,69.266ZM193.64,65.353C192.812,65.396 192.176,66.101 192.218,66.928C192.261,67.755 192.966,68.392 193.793,68.35L193.64,65.353ZM202.044,68.344C202.87,68.383 203.572,67.744 203.612,66.916C203.65,66.089 203.01,65.386 202.184,65.348L202.044,68.344ZM210.722,66.153C209.9,66.037 209.142,66.607 209.024,67.427C208.908,68.247 209.478,69.007 210.298,69.124L210.722,66.153ZM218.442,70.676C219.248,70.868 220.056,70.371 220.25,69.565C220.442,68.76 219.944,67.95 219.138,67.758L218.442,70.676ZM227.368,70.111C226.582,69.85 225.734,70.275 225.472,71.061C225.21,71.847 225.636,72.696 226.422,72.958L227.368,70.111ZM234.202,75.891C234.964,76.212 235.844,75.853 236.166,75.09C236.486,74.326 236.128,73.447 235.364,73.126L234.202,75.891ZM243.112,76.687C242.372,76.318 241.47,76.621 241.102,77.363C240.734,78.104 241.036,79.005 241.778,79.374L243.112,76.687ZM249.17,83.285C249.892,83.689 250.806,83.43 251.21,82.707C251.614,81.983 251.356,81.07 250.632,80.666L249.17,83.285ZM257.966,84.924C257.256,84.499 256.334,84.729 255.908,85.44C255.482,86.151 255.712,87.072 256.424,87.498L257.966,84.924ZM263.61,91.876C264.316,92.31 265.24,92.09 265.674,91.384C266.106,90.678 265.886,89.754 265.18,89.32L263.61,91.876ZM272.368,93.701C271.658,93.275 270.736,93.506 270.31,94.217C269.886,94.928 270.116,95.849 270.828,96.275L272.368,93.701ZM278.19,100.511C278.918,100.908 279.828,100.641 280.226,99.914C280.622,99.187 280.354,98.275 279.628,97.878L278.19,100.511ZM287.06,101.61C286.304,101.269 285.416,101.605 285.076,102.36C284.734,103.115 285.07,104.003 285.824,104.344L287.06,101.61ZM293.858,107.44C294.648,107.688 295.49,107.248 295.736,106.457C295.984,105.666 295.544,104.825 294.754,104.577L293.858,107.44ZM302.72,106.376C301.898,106.267 301.144,106.844 301.034,107.665C300.924,108.486 301.502,109.241 302.322,109.35L302.72,106.376ZM310.87,109.446C311.69,109.318 312.25,108.551 312.122,107.733C311.994,106.914 311.228,106.354 310.41,106.481L310.87,109.446ZM317.482,104.239C316.732,104.589 316.406,105.482 316.756,106.233C317.106,106.983 317.998,107.308 318.75,106.958L317.482,104.239ZM325.77,102.866C326.45,102.395 326.622,101.461 326.15,100.78C325.68,100.098 324.744,99.927 324.064,100.398L325.77,102.866ZM330.17,95.675C329.538,96.21 329.46,97.157 329.996,97.789C330.532,98.421 331.478,98.498 332.11,97.962L330.17,95.675ZM338.008,92.629C338.606,92.057 338.628,91.108 338.058,90.508C337.486,89.909 336.536,89.887 335.936,90.459L338.008,92.629ZM341.494,84.956C340.914,85.548 340.924,86.498 341.516,87.078C342.108,87.658 343.056,87.648 343.636,87.056L341.494,84.956ZM349.118,81.359C349.688,80.759 349.664,79.809 349.062,79.239C348.462,78.669 347.512,78.693 346.942,79.294L349.118,81.359ZM352.342,73.576C351.774,74.179 351.8,75.128 352.404,75.697C353.006,76.265 353.956,76.238 354.524,75.635L352.342,73.576ZM359.938,69.935C360.512,69.338 360.492,68.388 359.894,67.814C359.298,67.241 358.348,67.26 357.774,67.858L359.938,69.935ZM363.296,62.205C362.712,62.792 362.712,63.741 363.298,64.327C363.886,64.912 364.834,64.911 365.42,64.324L363.296,62.205ZM371.028,58.863C371.632,58.295 371.66,57.346 371.092,56.743C370.524,56.14 369.574,56.112 368.972,56.68L371.028,58.863ZM374.854,51.359C374.228,51.901 374.158,52.848 374.7,53.475C375.242,54.102 376.188,54.171 376.816,53.63L374.854,51.359ZM382.85,48.703C383.508,48.199 383.632,47.257 383.128,46.6C382.624,45.942 381.682,45.818 381.024,46.322L382.85,48.703ZM387.532,41.698C386.838,42.151 386.644,43.08 387.096,43.774C387.548,44.468 388.478,44.664 389.172,44.211L387.532,41.698ZM395.826,40.303C396.562,39.92 396.846,39.015 396.464,38.28C396.082,37.545 395.176,37.26 394.44,37.642L395.826,40.303ZM401.794,34.352C401.018,34.642 400.622,35.506 400.912,36.282C401.202,37.058 402.066,37.453 402.842,37.163L401.794,34.352ZM410.172,35.013C410.982,34.84 411.5,34.044 411.328,33.234C411.156,32.423 410.358,31.906 409.548,32.078L410.172,35.013ZM417.592,31.046C416.764,31.082 416.122,31.782 416.158,32.61C416.194,33.438 416.894,34.079 417.722,34.043L417.592,31.046ZM425.788,34.317C426.612,34.392 427.342,33.784 427.418,32.959C427.492,32.134 426.884,31.405 426.06,31.329L425.788,34.317ZM434.846,32.71C434.04,32.52 433.232,33.018 433.04,33.825C432.85,34.631 433.348,35.439 434.154,35.63L434.846,32.71ZM441.972,38.375C442.714,38.743 443.614,38.439 443.982,37.697C444.35,36.954 444.046,36.054 443.304,35.687L441.972,38.375ZM450.752,40.818C450.142,40.258 449.194,40.298 448.634,40.908C448.072,41.518 448.114,42.467 448.724,43.028L450.752,40.818ZM454.392,49.277C454.918,49.917 455.864,50.01 456.504,49.485C457.144,48.959 457.238,48.014 456.712,47.373L454.392,49.277ZM462.33,53.731C461.738,53.153 460.788,53.165 460.21,53.758C459.632,54.352 459.644,55.302 460.238,55.88L462.33,53.731ZM467.38,61.339C468.096,61.756 469.014,61.514 469.432,60.798C469.848,60.082 469.606,59.164 468.89,58.747L467.38,61.339ZM476.506,62.099C475.718,61.843 474.872,62.274 474.616,63.062C474.36,63.85 474.79,64.696 475.578,64.952L476.506,62.099ZM484.17,67.04C484.988,67.183 485.764,66.636 485.906,65.82C486.048,65.004 485.502,64.227 484.686,64.085L484.17,67.04ZM493.132,65.125C492.306,65.06 491.584,65.676 491.518,66.502C491.452,67.328 492.07,68.05 492.896,68.116L493.132,65.125ZM501.696,68.511C502.526,68.523 503.206,67.861 503.218,67.033C503.23,66.205 502.568,65.523 501.74,65.511L501.696,68.511ZM510.264,65.429C509.436,65.455 508.786,66.148 508.812,66.976C508.838,67.804 509.53,68.454 510.358,68.428L510.264,65.429ZM518.706,68.095C519.534,68.074 520.188,67.385 520.166,66.557C520.146,65.729 519.458,65.075 518.628,65.096L518.706,68.095ZM526.53,65.123C525.702,65.094 525.008,65.741 524.978,66.569C524.948,67.396 525.594,68.092 526.422,68.122L526.53,65.123ZM534.058,68.709C534.88,68.811 535.628,68.227 535.73,67.404C535.832,66.582 535.248,65.833 534.426,65.732L534.058,68.709ZM542.312,67.185C541.508,66.981 540.692,67.466 540.488,68.269C540.284,69.072 540.768,69.889 541.572,70.093L542.312,67.185ZM548.704,72.55C549.46,72.89 550.348,72.552 550.688,71.796C551.026,71.041 550.688,70.153 549.932,69.814L548.704,72.55ZM556.956,73.811C556.276,73.338 555.342,73.505 554.868,74.185C554.394,74.864 554.562,75.799 555.242,76.273L556.956,73.811ZM561.236,81.037C561.864,81.579 562.81,81.509 563.352,80.882C563.894,80.255 563.824,79.308 563.196,78.767L561.236,81.037ZM569.106,83.785C568.458,83.269 567.516,83.376 567,84.024C566.484,84.672 566.59,85.616 567.238,86.132L569.106,83.785ZM573.83,90.698C574.544,91.117 575.464,90.877 575.882,90.163C576.302,89.448 576.062,88.529 575.348,88.11L573.83,90.698ZM582.168,91.397C581.396,91.097 580.528,91.479 580.228,92.251C579.928,93.024 580.31,93.893 581.082,94.193L582.168,91.397ZM588.71,96.576C589.514,96.773 590.326,96.281 590.524,95.477C590.722,94.672 590.23,93.86 589.426,93.662L588.71,96.576ZM596.958,95.112C596.138,94.993 595.376,95.56 595.258,96.38C595.138,97.2 595.706,97.961 596.526,98.081L596.958,95.112ZM604.436,98.936C605.262,98.997 605.982,98.377 606.042,97.551C606.104,96.725 605.484,96.006 604.658,95.944L604.436,98.936ZM612.346,96.304C611.518,96.286 610.832,96.943 610.812,97.771C610.794,98.599 611.452,99.285 612.28,99.303L612.346,96.304ZM620.308,99.386C621.136,99.402 621.82,98.744 621.836,97.916C621.854,97.088 621.196,96.403 620.368,96.386L620.308,99.386ZM628.516,96.727C627.688,96.673 626.974,97.3 626.922,98.127C626.868,98.954 627.496,99.667 628.322,99.72L628.516,96.727ZM636.292,100.434C637.114,100.529 637.86,99.939 637.954,99.117C638.05,98.294 637.46,97.549 636.636,97.454L636.292,100.434ZM644.714,98.617C643.898,98.475 643.122,99.022 642.98,99.839C642.838,100.655 643.386,101.431 644.202,101.573L644.714,98.617ZM652.022,103.168C652.828,103.358 653.636,102.858 653.826,102.052C654.016,101.246 653.516,100.438 652.71,100.248L652.022,103.168ZM660.602,102.355C659.808,102.119 658.972,102.57 658.736,103.364C658.5,104.158 658.95,104.993 659.744,105.23L660.602,102.355ZM667.35,107.716C668.132,107.993 668.988,107.584 669.264,106.803C669.542,106.022 669.132,105.165 668.352,104.888L667.35,107.716ZM675.964,107.746C675.192,107.442 674.322,107.821 674.018,108.592C673.716,109.363 674.094,110.234 674.866,110.537L675.964,107.746ZM682.338,113.554C683.104,113.868 683.98,113.501 684.294,112.735C684.608,111.968 684.242,111.092 683.474,110.778L682.338,113.554ZM690.946,113.817C690.176,113.51 689.304,113.884 688.996,114.653C688.688,115.422 689.062,116.295 689.832,116.603L690.946,113.817ZM697.408,119.526C698.186,119.812 699.048,119.414 699.334,118.637C699.62,117.86 699.224,116.997 698.446,116.711L697.408,119.526ZM706.018,119.337C705.23,119.082 704.384,119.514 704.128,120.303C703.874,121.091 704.306,121.937 705.094,122.192L706.018,119.337ZM712.91,124.522C713.71,124.739 714.534,124.268 714.752,123.469C714.97,122.669 714.498,121.845 713.698,121.627L712.91,124.522ZM721.48,123.545C720.67,123.366 719.87,123.877 719.692,124.686C719.512,125.495 720.024,126.296 720.832,126.474L721.48,123.545ZM728.78,128.027C729.598,128.164 730.37,127.612 730.508,126.795C730.644,125.978 730.094,125.205 729.276,125.068L728.78,128.027ZM737.038,126.142C736.216,126.052 735.476,126.647 735.386,127.471C735.296,128.294 735.892,129.035 736.714,129.124L737.038,126.142ZM744.706,129.749C745.534,129.788 746.236,129.15 746.276,128.322C746.316,127.495 745.676,126.792 744.85,126.753L744.706,129.749ZM752.684,126.88C751.856,126.893 751.194,127.574 751.206,128.403C751.218,129.231 751.9,129.892 752.728,129.88L752.684,126.88ZM760.732,129.509C761.558,129.444 762.176,128.723 762.112,127.897C762.048,127.071 761.326,126.453 760.5,126.518L760.732,129.509ZM768.292,125.672C767.472,125.786 766.898,126.544 767.012,127.364C767.126,128.185 767.884,128.757 768.704,128.643L768.292,125.672ZM776.608,127.311C777.42,127.15 777.948,126.361 777.788,125.549C777.628,124.736 776.838,124.207 776.026,124.368L776.608,127.311ZM783.684,122.646C782.88,122.848 782.394,123.663 782.594,124.467C782.796,125.27 783.612,125.758 784.416,125.556L783.684,122.646ZM792.12,123.437C792.914,123.2 793.366,122.365 793.13,121.571C792.892,120.777 792.058,120.325 791.264,120.562L792.12,123.437ZM798.768,118.177C797.984,118.441 797.56,119.292 797.824,120.077C798.088,120.862 798.938,121.285 799.724,121.021L798.768,118.177ZM807.24,118.382C808.018,118.098 808.418,117.237 808.136,116.459C807.852,115.68 806.99,115.279 806.212,115.563L807.24,118.382ZM813.618,112.793C812.844,113.089 812.456,113.956 812.75,114.73C813.046,115.504 813.912,115.892 814.686,115.596L813.618,112.793ZM822.092,112.743C822.864,112.444 823.248,111.576 822.948,110.803C822.65,110.03 821.782,109.646 821.008,109.945L822.092,112.743ZM828.416,107.097C827.642,107.391 827.252,108.257 827.548,109.032C827.842,109.806 828.708,110.195 829.482,109.901L828.416,107.097ZM836.89,107.148C837.67,106.866 838.072,106.006 837.79,105.227C837.51,104.448 836.65,104.045 835.87,104.326L836.89,107.148ZM843.398,101.713C842.61,101.974 842.184,102.822 842.446,103.609C842.706,104.395 843.554,104.821 844.34,104.561L843.398,101.713ZM851.856,102.217C852.652,101.985 853.108,101.153 852.878,100.357C852.646,99.562 851.814,99.105 851.018,99.336L851.856,102.217ZM858.744,97.272C857.938,97.467 857.444,98.278 857.638,99.083C857.834,99.888 858.644,100.383 859.45,100.188L858.744,97.272ZM867.356,98.458C868.168,98.293 868.692,97.5 868.526,96.689C868.362,95.877 867.57,95.353 866.758,95.518L867.356,98.458ZM874.84,93.97C874.024,94.116 873.482,94.895 873.626,95.71C873.772,96.526 874.552,97.069 875.368,96.924L874.84,93.97ZM883.374,95.618C884.194,95.498 884.76,94.736 884.64,93.916C884.52,93.097 883.758,92.529 882.94,92.65L883.374,95.618ZM891.178,91.606C890.354,91.692 889.758,92.43 889.844,93.254C889.93,94.078 890.668,94.676 891.492,94.589L891.178,91.606ZM899.544,93.95C900.372,93.908 901.008,93.203 900.966,92.376C900.924,91.548 900.218,90.912 899.392,90.954L899.544,93.95ZM907.72,90.82C906.892,90.801 906.206,91.458 906.186,92.286C906.168,93.114 906.824,93.801 907.652,93.819L907.72,90.82ZM915.684,94.374C916.506,94.472 917.252,93.886 917.352,93.063C917.45,92.241 916.864,91.494 916.042,91.395L915.684,94.374ZM924.288,92.861C923.482,92.67 922.674,93.168 922.482,93.974C922.292,94.781 922.79,95.589 923.596,95.78L924.288,92.861ZM931.35,98.013C932.136,98.272 932.984,97.844 933.242,97.057C933.502,96.27 933.074,95.423 932.288,95.163L931.35,98.013ZM940.054,97.792C939.268,97.533 938.42,97.961 938.162,98.748C937.902,99.535 938.33,100.383 939.116,100.642L940.054,97.792ZM947.106,102.956C947.912,103.15 948.722,102.655 948.916,101.85C949.112,101.045 948.616,100.234 947.81,100.039L947.106,102.956ZM955.706,101.516C954.884,101.406 954.13,101.983 954.02,102.804C953.91,103.625 954.486,104.379 955.308,104.489L955.706,101.516ZM963.604,105.208C964.43,105.244 965.13,104.602 965.166,103.774C965.202,102.947 964.56,102.247 963.732,102.211L963.604,105.208ZM971.828,102.267C971,102.288 970.346,102.977 970.368,103.805C970.39,104.634 971.078,105.287 971.906,105.266L971.828,102.267ZM980.22,104.821C981.046,104.756 981.662,104.033 981.598,103.208C981.532,102.382 980.81,101.765 979.984,101.83L980.22,104.821ZM988.04,101.029C987.216,101.126 986.628,101.872 986.726,102.695C986.824,103.518 987.57,104.105 988.392,104.008L988.04,101.029ZM996.384,102.912C997.202,102.78 997.758,102.01 997.626,101.192C997.496,100.375 996.726,99.818 995.908,99.95L996.384,102.912ZM1003.22,98.557C1002.412,98.738 1001.904,99.539 1002.084,100.348C1002.264,101.156 1003.066,101.665 1003.874,101.485L1003.22,98.557ZM1011.304,99.524C1012.096,99.28 1012.538,98.439 1012.294,97.648C1012.048,96.857 1011.208,96.414 1010.416,96.659L1011.304,99.524ZM1017.366,94.116C1016.604,94.443 1016.254,95.325 1016.58,96.087C1016.908,96.848 1017.79,97.2 1018.55,96.873L1017.366,94.116ZM1025.458,93.381C1026.172,92.96 1026.41,92.041 1025.99,91.327C1025.57,90.613 1024.65,90.375 1023.936,90.795L1025.458,93.381ZM1030.064,86.668C1029.402,87.167 1029.27,88.108 1029.77,88.769C1030.268,89.43 1031.21,89.562 1031.87,89.063L1030.064,86.668ZM1037.816,84.292C1038.454,83.765 1038.546,82.819 1038.018,82.18C1037.49,81.541 1036.546,81.451 1035.906,81.978L1037.816,84.292ZM1041.896,77.238C1041.23,77.729 1041.086,78.668 1041.576,79.335C1042.068,80.003 1043.006,80.146 1043.674,79.656L1041.896,77.238ZM1049.868,75.621C1050.588,75.213 1050.842,74.298 1050.434,73.577C1050.026,72.856 1049.11,72.603 1048.39,73.011L1049.868,75.621ZM1055.332,69.634C1054.566,69.951 1054.202,70.828 1054.518,71.594C1054.836,72.359 1055.714,72.723 1056.478,72.406L1055.332,69.634ZM1063.464,69.938C1064.256,69.7 1064.708,68.864 1064.47,68.07C1064.232,67.277 1063.396,66.826 1062.602,67.064L1063.464,69.938ZM1070.048,65.155C1069.24,65.331 1068.726,66.13 1068.902,66.939C1069.078,67.749 1069.878,68.262 1070.688,68.086L1070.048,65.155ZM1078.008,66.722C1078.826,66.593 1079.384,65.825 1079.254,65.006C1079.126,64.188 1078.358,63.63 1077.54,63.759L1078.008,66.722ZM1085.088,62.744C1084.266,62.837 1083.674,63.579 1083.766,64.402C1083.86,65.226 1084.602,65.818 1085.426,65.725L1085.088,62.744ZM1092.912,65.015C1093.738,64.951 1094.356,64.229 1094.292,63.403C1094.228,62.577 1093.506,61.96 1092.68,62.024L1092.912,65.015ZM1100.272,61.542C1099.446,61.584 1098.808,62.288 1098.85,63.115C1098.89,63.943 1099.594,64.58 1100.422,64.539L1100.272,61.542ZM1107.936,64.251C1108.764,64.228 1109.416,63.538 1109.394,62.71C1109.37,61.882 1108.682,61.229 1107.854,61.252L1107.936,64.251ZM1115.428,61.118C1114.6,61.125 1113.934,61.802 1113.94,62.631C1113.948,63.459 1114.624,64.125 1115.454,64.118L1115.428,61.118ZM1123.162,64.159C1123.992,64.184 1124.682,63.532 1124.708,62.704C1124.732,61.876 1124.08,61.185 1123.252,61.16L1123.162,64.159ZM1131.024,61.636C1130.2,61.559 1129.468,62.165 1129.39,62.99C1129.314,63.815 1129.92,64.546 1130.744,64.623L1131.024,61.636ZM1138.322,65.592C1139.14,65.725 1139.912,65.171 1140.044,64.353C1140.178,63.535 1139.624,62.764 1138.806,62.631L1138.322,65.592ZM1146.464,64.159C1145.658,63.969 1144.85,64.467 1144.66,65.273C1144.468,66.08 1144.968,66.888 1145.774,67.079L1146.464,64.159ZM1153.124,69.098C1153.914,69.345 1154.756,68.905 1155.004,68.114C1155.25,67.323 1154.81,66.482 1154.02,66.235L1153.124,69.098ZM1161.39,68.818C1160.618,68.519 1159.75,68.902 1159.45,69.674C1159.15,70.447 1159.534,71.316 1160.306,71.615L1161.39,68.818ZM1167.336,74.589C1168.088,74.934 1168.978,74.603 1169.322,73.849C1169.668,73.096 1169.336,72.206 1168.582,71.861L1167.336,74.589ZM1175.586,75.276C1174.85,74.896 1173.946,75.185 1173.566,75.921C1173.186,76.658 1173.476,77.562 1174.212,77.942L1175.586,75.276ZM1180.966,81.577C1181.688,81.98 1182.602,81.721 1183.006,80.997C1183.41,80.274 1183.15,79.36 1182.426,78.957L1180.966,81.577ZM1189.154,82.792C1188.436,82.377 1187.518,82.622 1187.104,83.339C1186.688,84.056 1186.934,84.973 1187.65,85.389L1189.154,82.792ZM1194.33,89.264C1195.048,89.678 1195.966,89.432 1196.38,88.715C1196.794,87.997 1196.548,87.08 1195.83,86.666L1194.33,89.264ZM1202.522,90.456C1201.796,90.056 1200.884,90.319 1200.484,91.045C1200.084,91.77 1200.348,92.682 1201.072,93.083L1202.522,90.456ZM1207.938,96.726C1208.678,97.1 1209.58,96.804 1209.954,96.065C1210.328,95.326 1210.032,94.423 1209.294,94.049L1207.938,96.726ZM1216.196,97.335C1215.44,96.999 1214.554,97.34 1214.218,98.097C1213.882,98.855 1214.222,99.741 1214.98,100.077L1216.196,97.335ZM1222.214,103.025C1222.99,103.313 1223.854,102.916 1224.142,102.14C1224.43,101.363 1224.034,100.5 1223.256,100.212L1222.214,103.025ZM1230.476,102.604C1229.682,102.371 1228.848,102.828 1228.616,103.623C1228.384,104.418 1228.84,105.251 1229.636,105.483L1230.476,102.604ZM1237.24,107.4C1238.05,107.572 1238.848,107.055 1239.02,106.244C1239.192,105.434 1238.674,104.637 1237.864,104.465L1237.24,107.4ZM1245.342,105.767C1244.52,105.655 1243.764,106.23 1243.652,107.05C1243.54,107.871 1244.116,108.627 1244.936,108.739L1245.342,105.767ZM1252.748,109.522C1253.574,109.576 1254.288,108.949 1254.342,108.123C1254.394,107.296 1253.768,106.582 1252.942,106.529L1252.748,109.522ZM1260.53,106.772C1259.702,106.771 1259.03,107.443 1259.03,108.271C1259.03,109.1 1259.702,109.771 1260.53,109.772L1260.53,106.772ZM1268.67,109.673C1269.498,109.683 1270.178,109.019 1270.188,108.191C1270.198,107.363 1269.534,106.683 1268.706,106.673L1268.67,109.673ZM1277.33,107.129C1276.506,107.052 1275.774,107.658 1275.698,108.483C1275.62,109.308 1276.226,110.039 1277.052,110.116L1277.33,107.129ZM1285.386,111.221C1286.202,111.361 1286.978,110.813 1287.118,109.997C1287.26,109.18 1286.71,108.405 1285.894,108.264L1285.386,111.221ZM1294.34,110.043C1293.536,109.842 1292.722,110.331 1292.522,111.135C1292.322,111.939 1292.81,112.753 1293.614,112.953L1294.34,110.043ZM1301.696,115.291C1302.482,115.551 1303.33,115.124 1303.59,114.337C1303.85,113.55 1303.422,112.702 1302.636,112.442L1301.696,115.291ZM1310.722,115.476C1309.96,115.152 1309.08,115.507 1308.756,116.269C1308.432,117.032 1308.786,117.913 1309.548,118.237L1310.722,115.476ZM2,136.2C2.976,137.339 2.976,137.339 2.976,137.339C2.976,137.339 2.976,137.339 2.976,137.339C2.976,137.339 2.976,137.339 2.976,137.339C2.976,137.339 2.976,137.339 2.976,137.339C2.976,137.339 2.977,137.338 2.978,137.337C2.98,137.336 2.983,137.333 2.987,137.33C2.994,137.323 3.006,137.313 3.023,137.299C3.055,137.272 3.104,137.23 3.169,137.175C3.299,137.066 3.493,136.902 3.748,136.69C4.259,136.264 5.013,135.643 5.982,134.862L4.099,132.527C3.117,133.318 2.351,133.95 1.829,134.384C1.568,134.601 1.368,134.769 1.233,134.884C1.165,134.941 1.114,134.985 1.079,135.014C1.061,135.029 1.048,135.04 1.039,135.048C1.034,135.052 1.031,135.055 1.028,135.057C1.027,135.058 1.026,135.059 1.026,135.06C1.025,135.06 1.025,135.06 1.025,135.06C1.025,135.06 1.025,135.06 1.024,135.061C1.024,135.061 1.024,135.061 1.024,135.061C1.024,135.061 1.024,135.061 2,136.2ZM12.197,130.015C14.093,128.581 16.229,127.005 18.558,125.347L16.819,122.903C14.464,124.579 12.304,126.173 10.387,127.622L12.197,130.015ZM25.049,120.875C27.172,119.46 29.392,118.029 31.682,116.615L30.107,114.062C27.783,115.496 25.534,116.946 23.385,118.378L25.049,120.875ZM38.454,112.619C40.733,111.337 43.052,110.1 45.389,108.936L44.052,106.251C41.665,107.44 39.301,108.7 36.983,110.004L38.454,112.619ZM52.504,105.659C54.955,104.629 57.396,103.709 59.805,102.932L58.883,100.077C56.382,100.884 53.86,101.835 51.341,102.894L52.504,105.659ZM67.299,100.98C68.583,100.734 69.847,100.542 71.085,100.409L70.766,97.426C69.438,97.568 68.093,97.773 66.734,98.033L67.299,100.98ZM71.085,100.409C72.414,100.267 73.679,100.158 74.886,100.079L74.691,97.085C73.44,97.167 72.133,97.28 70.766,97.426L71.085,100.409ZM82.415,99.981C85.189,100.11 87.618,100.431 89.843,100.878L90.434,97.937C88.061,97.46 85.482,97.121 82.555,96.984L82.415,99.981ZM97.087,102.879C98.273,103.281 99.446,103.703 100.65,104.137C101.849,104.569 103.078,105.013 104.354,105.45L105.325,102.612C104.077,102.184 102.871,101.749 101.667,101.315C100.467,100.882 99.267,100.45 98.049,100.038L97.087,102.879ZM111.89,107.661C114.216,108.212 116.765,108.688 119.638,109.042L120.005,106.065C117.245,105.724 114.804,105.268 112.582,104.741L111.89,107.661ZM127.457,109.645C128.712,109.689 130.021,109.712 131.386,109.712L131.386,106.712C130.055,106.712 128.781,106.689 127.562,106.646L127.457,109.645ZM131.386,109.712C132.943,109.712 134.401,109.614 135.772,109.426L135.364,106.454C134.139,106.622 132.817,106.712 131.386,106.712L131.386,109.712ZM144.162,106.659C146.824,105.138 148.972,103.145 150.842,100.902L148.537,98.981C146.834,101.025 144.949,102.754 142.673,104.054L144.162,106.659ZM155.703,93.873C157.139,91.526 158.506,89.171 160.044,86.812L157.532,85.173C155.962,87.578 154.532,90.039 153.144,92.308L155.703,93.873ZM164.921,80.36C166.641,78.457 168.593,76.678 170.893,75.1L169.196,72.626C166.677,74.354 164.551,76.296 162.696,78.348L164.921,80.36ZM177.945,71.418C180.243,70.534 182.817,69.803 185.721,69.266L185.175,66.316C182.104,66.884 179.351,67.663 176.868,68.618L177.945,71.418ZM193.793,68.35C195.106,68.282 196.472,68.248 197.893,68.248L197.893,65.248C196.423,65.248 195.006,65.284 193.64,65.353L193.793,68.35ZM197.893,68.248C199.295,68.248 200.678,68.281 202.044,68.344L202.184,65.348C200.772,65.282 199.342,65.248 197.893,65.248L197.893,68.248ZM210.298,69.124C213.086,69.521 215.798,70.044 218.442,70.676L219.138,67.758C216.41,67.106 213.606,66.564 210.722,66.153L210.298,69.124ZM226.422,72.958C229.08,73.843 231.67,74.828 234.202,75.891L235.364,73.126C232.77,72.035 230.106,71.023 227.368,70.111L226.422,72.958ZM241.778,79.374C244.294,80.625 246.756,81.937 249.17,83.285L250.632,80.666C248.184,79.299 245.68,77.964 243.112,76.687L241.778,79.374ZM256.424,87.498C258.858,88.956 261.248,90.424 263.61,91.876L265.18,89.32C262.82,87.869 260.416,86.393 257.966,84.924L256.424,87.498ZM270.828,96.275C273.298,97.753 275.748,99.178 278.19,100.511L279.628,97.878C277.232,96.571 274.818,95.167 272.368,93.701L270.828,96.275ZM285.824,104.344C288.486,105.546 291.158,106.595 293.858,107.44L294.754,104.577C292.19,103.775 289.632,102.772 287.06,101.61L285.824,104.344ZM302.322,109.35C303.762,109.542 305.212,109.665 306.674,109.711L306.77,106.713C305.412,106.669 304.062,106.555 302.72,106.376L302.322,109.35ZM306.674,109.711C308.078,109.756 309.478,109.663 310.87,109.446L310.41,106.481C309.19,106.671 307.978,106.751 306.77,106.713L306.674,109.711ZM318.75,106.958C321.098,105.864 323.436,104.479 325.77,102.866L324.064,100.398C321.838,101.937 319.646,103.231 317.482,104.239L318.75,106.958ZM332.11,97.962C334.066,96.303 336.032,94.514 338.008,92.629L335.936,90.459C333.992,92.313 332.072,94.061 330.17,95.675L332.11,97.962ZM343.636,87.056C345.448,85.208 347.276,83.301 349.118,81.359L346.942,79.294C345.106,81.23 343.29,83.124 341.494,84.956L343.636,87.056ZM354.524,75.635C356.312,73.741 358.114,71.835 359.938,69.935L357.774,67.858C355.942,69.767 354.13,71.68 352.342,73.576L354.524,75.635ZM365.42,64.324C367.268,62.472 369.138,60.646 371.028,58.863L368.972,56.68C367.054,58.487 365.162,60.335 363.296,62.205L365.42,64.324ZM376.816,53.63C378.802,51.914 380.812,50.265 382.85,48.703L381.024,46.322C378.936,47.924 376.88,49.611 374.854,51.359L376.816,53.63ZM389.172,44.211C391.36,42.784 393.576,41.474 395.826,40.303L394.44,37.642C392.096,38.863 389.794,40.224 387.532,41.698L389.172,44.211ZM402.842,37.163C405.248,36.265 407.69,35.541 410.172,35.013L409.548,32.078C406.912,32.639 404.326,33.407 401.794,34.352L402.842,37.163ZM417.722,34.043C418.982,33.988 420.252,33.985 421.536,34.039L421.66,31.042C420.292,30.984 418.936,30.987 417.592,31.046L417.722,34.043ZM421.536,34.039C423.028,34.101 424.444,34.195 425.788,34.317L426.06,31.329C424.664,31.202 423.2,31.106 421.66,31.042L421.536,34.039ZM434.154,35.63C437.236,36.359 439.792,37.295 441.972,38.375L443.304,35.687C440.9,34.496 438.128,33.487 434.846,32.71L434.154,35.63ZM448.724,43.028C450.818,44.952 452.57,47.058 454.392,49.277L456.712,47.373C454.898,45.164 453.024,42.904 450.752,40.818L448.724,43.028ZM460.238,55.88C462.226,57.816 464.522,59.673 467.38,61.339L468.89,58.747C466.276,57.223 464.172,55.524 462.33,53.731L460.238,55.88ZM475.578,64.952C478.112,65.776 480.954,66.48 484.17,67.04L484.686,64.085C481.592,63.546 478.89,62.875 476.506,62.099L475.578,64.952ZM492.896,68.116C495.61,68.33 498.536,68.465 501.696,68.511L501.74,65.511C498.638,65.466 495.776,65.334 493.132,65.125L492.896,68.116ZM510.358,68.428C511.792,68.383 513.266,68.322 514.784,68.246L514.632,65.25C513.134,65.325 511.678,65.385 510.264,65.429L510.358,68.428ZM514.784,68.246C516.134,68.178 517.44,68.128 518.706,68.095L518.628,65.096C517.338,65.129 516.006,65.18 514.632,65.25L514.784,68.246ZM526.422,68.122C529.2,68.221 531.734,68.422 534.058,68.709L534.426,65.732C532.006,65.433 529.386,65.226 526.53,65.123L526.422,68.122ZM541.572,70.093C544.266,70.778 546.61,71.611 548.704,72.55L549.932,69.814C547.676,68.801 545.168,67.912 542.312,67.185L541.572,70.093ZM555.242,76.273C557.372,77.757 559.296,79.362 561.236,81.037L563.196,78.767C561.238,77.076 559.22,75.387 556.956,73.811L555.242,76.273ZM567.238,86.132C569.214,87.703 571.358,89.25 573.83,90.698L575.348,88.11C573.028,86.751 571.002,85.292 569.106,83.785L567.238,86.132ZM581.082,94.193C583.37,95.082 585.892,95.884 588.71,96.576L589.426,93.662C586.726,92.999 584.328,92.236 582.168,91.397L581.082,94.193ZM596.526,98.081C598.972,98.437 601.6,98.725 604.436,98.936L604.658,95.944C601.888,95.738 599.328,95.458 596.958,95.112L596.526,98.081ZM612.28,99.303C613.576,99.332 614.91,99.346 616.282,99.346L616.282,96.346C614.93,96.346 613.62,96.332 612.346,96.304L612.28,99.303ZM616.282,99.346C617.65,99.346 618.992,99.36 620.308,99.386L620.368,96.386C619.032,96.36 617.67,96.346 616.282,96.346L616.282,99.346ZM628.322,99.72C631.094,99.899 633.746,100.14 636.292,100.434L636.636,97.454C634.04,97.154 631.338,96.909 628.516,96.727L628.322,99.72ZM644.202,101.573C646.922,102.044 649.52,102.579 652.022,103.168L652.71,100.248C650.15,99.646 647.494,99.098 644.714,98.617L644.202,101.573ZM659.744,105.23C662.358,106.009 664.882,106.843 667.35,107.716L668.352,104.888C665.842,104 663.27,103.151 660.602,102.355L659.744,105.23ZM674.866,110.537C677.366,111.521 679.842,112.532 682.338,113.554L683.474,110.778C680.978,109.755 678.484,108.738 675.964,107.746L674.866,110.537ZM689.832,116.603C692.296,117.588 694.81,118.568 697.408,119.526L698.446,116.711C695.88,115.765 693.392,114.796 690.946,113.817L689.832,116.603ZM705.094,122.192C707.598,123.002 710.196,123.782 712.91,124.522L713.698,121.627C711.034,120.901 708.482,120.134 706.018,119.337L705.094,122.192ZM720.832,126.474C722.134,126.762 723.464,127.04 724.822,127.306L725.4,124.362C724.066,124.1 722.758,123.828 721.48,123.545L720.832,126.474ZM724.822,127.306C726.154,127.568 727.472,127.807 728.78,128.027L729.276,125.068C727.996,124.853 726.704,124.618 725.4,124.362L724.822,127.306ZM736.714,129.124C739.428,129.419 742.09,129.625 744.706,129.749L744.85,126.753C742.294,126.631 739.692,126.43 737.038,126.142L736.714,129.124ZM752.728,129.88C755.444,129.839 758.11,129.712 760.732,129.509L760.5,126.518C757.94,126.717 755.336,126.84 752.684,126.88L752.728,129.88ZM768.704,128.643C771.382,128.271 774.014,127.823 776.608,127.311L776.026,124.368C773.486,124.87 770.91,125.308 768.292,125.672L768.704,128.643ZM784.416,125.556C787.016,124.903 789.584,124.193 792.12,123.437L791.264,120.562C788.764,121.306 786.24,122.005 783.684,122.646L784.416,125.556ZM799.724,121.021C802.25,120.172 804.754,119.288 807.24,118.382L806.212,115.563C803.744,116.462 801.266,117.337 798.768,118.177L799.724,121.021ZM814.686,115.596C817.162,114.652 819.63,113.696 822.092,112.743L821.008,109.945C818.544,110.899 816.084,111.852 813.618,112.793L814.686,115.596ZM829.482,109.901C831.946,108.965 834.412,108.043 836.89,107.148L835.87,104.326C833.372,105.229 830.89,106.156 828.416,107.097L829.482,109.901ZM844.34,104.561C846.826,103.737 849.33,102.952 851.856,102.217L851.018,99.336C848.452,100.083 845.914,100.88 843.398,101.713L844.34,104.561ZM859.45,100.188C860.718,99.881 861.994,99.589 863.278,99.313L862.646,96.38C861.336,96.661 860.036,96.959 858.744,97.272L859.45,100.188ZM863.278,99.313C864.668,99.014 866.026,98.729 867.356,98.458L866.758,95.518C865.416,95.792 864.046,96.079 862.646,96.38L863.278,99.313ZM875.368,96.924C878.18,96.422 880.844,95.989 883.374,95.618L882.94,92.65C880.376,93.025 877.682,93.463 874.84,93.97L875.368,96.924ZM891.492,94.589C894.37,94.287 897.046,94.078 899.544,93.95L899.392,90.954C896.834,91.085 894.106,91.298 891.178,91.606L891.492,94.589ZM907.652,93.819C910.586,93.885 913.24,94.08 915.684,94.374L916.042,91.395C913.498,91.09 910.746,90.888 907.72,90.82L907.652,93.819ZM923.596,95.78C926.344,96.431 928.872,97.197 931.35,98.013L932.288,95.163C929.764,94.333 927.148,93.538 924.288,92.861L923.596,95.78ZM939.116,100.642C941.618,101.465 944.232,102.261 947.106,102.956L947.81,100.039C945.044,99.371 942.512,98.601 940.054,97.792L939.116,100.642ZM955.308,104.489C957.846,104.829 960.59,105.078 963.604,105.208L963.732,102.211C960.806,102.085 958.152,101.844 955.706,101.516L955.308,104.489ZM971.906,105.266C974.496,105.198 977.258,105.053 980.22,104.821L979.984,101.83C977.072,102.059 974.362,102.201 971.828,102.267L971.906,105.266ZM988.392,104.008C989.742,103.848 991.126,103.672 992.55,103.479L992.146,100.506C990.74,100.697 989.37,100.871 988.04,101.029L988.392,104.008ZM992.55,103.479C993.87,103.3 995.148,103.111 996.384,102.912L995.908,99.95C994.696,100.145 993.444,100.33 992.146,100.506L992.55,103.479ZM1003.874,101.485C1006.564,100.884 1009.028,100.229 1011.304,99.524L1010.416,96.659C1008.224,97.337 1005.836,97.973 1003.22,98.557L1003.874,101.485ZM1018.55,96.873C1021.112,95.772 1023.386,94.601 1025.458,93.381L1023.936,90.795C1021.968,91.954 1019.808,93.067 1017.366,94.116L1018.55,96.873ZM1031.87,89.063C1033.96,87.485 1035.9,85.873 1037.816,84.292L1035.906,81.978C1033.974,83.572 1032.09,85.138 1030.064,86.668L1031.87,89.063ZM1043.674,79.656C1045.566,78.265 1047.59,76.912 1049.868,75.621L1048.39,73.011C1045.988,74.371 1043.866,75.791 1041.896,77.238L1043.674,79.656ZM1056.478,72.406C1058.582,71.535 1060.894,70.708 1063.464,69.938L1062.602,67.064C1059.94,67.862 1057.534,68.723 1055.332,69.634L1056.478,72.406ZM1070.688,68.086C1072.954,67.593 1075.386,67.136 1078.008,66.722L1077.54,63.759C1074.866,64.181 1072.376,64.648 1070.048,65.155L1070.688,68.086ZM1085.426,65.725C1087.788,65.458 1090.28,65.22 1092.912,65.015L1092.68,62.024C1090.014,62.232 1087.488,62.473 1085.088,62.744L1085.426,65.725ZM1100.422,64.539C1102.822,64.418 1105.324,64.322 1107.936,64.251L1107.854,61.252C1105.22,61.324 1102.696,61.421 1100.272,61.542L1100.422,64.539ZM1115.454,64.118C1116.718,64.107 1118.006,64.102 1119.316,64.102L1119.316,61.102C1117.996,61.102 1116.702,61.107 1115.428,61.118L1115.454,64.118ZM1119.316,64.102C1120.618,64.102 1121.9,64.121 1123.162,64.159L1123.252,61.16C1121.96,61.121 1120.648,61.102 1119.316,61.102L1119.316,64.102ZM1130.744,64.623C1133.354,64.867 1135.878,65.193 1138.322,65.592L1138.806,62.631C1136.292,62.221 1133.702,61.887 1131.024,61.636L1130.744,64.623ZM1145.774,67.079C1148.302,67.677 1150.748,68.354 1153.124,69.098L1154.02,66.235C1151.578,65.471 1149.064,64.775 1146.464,64.159L1145.774,67.079ZM1160.306,71.615C1162.71,72.547 1165.048,73.543 1167.336,74.589L1168.582,71.861C1166.246,70.793 1163.854,69.774 1161.39,68.818L1160.306,71.615ZM1174.212,77.942C1176.496,79.12 1178.742,80.336 1180.966,81.577L1182.426,78.957C1180.182,77.704 1177.906,76.472 1175.586,75.276L1174.212,77.942ZM1187.65,85.389C1189.87,86.674 1192.104,87.979 1194.33,89.264L1195.83,86.666C1193.6,85.379 1191.392,84.089 1189.154,82.792L1187.65,85.389ZM1201.072,93.083C1203.328,94.328 1205.61,95.548 1207.938,96.726L1209.294,94.049C1207.004,92.891 1204.754,91.688 1202.522,90.456L1201.072,93.083ZM1214.98,100.077C1217.33,101.119 1219.736,102.107 1222.214,103.025L1223.256,100.212C1220.842,99.318 1218.494,98.354 1216.196,97.335L1214.98,100.077ZM1229.636,105.483C1232.092,106.201 1234.624,106.843 1237.24,107.4L1237.864,104.465C1235.322,103.925 1232.864,103.301 1230.476,102.604L1229.636,105.483ZM1244.936,108.739C1247.458,109.084 1250.058,109.347 1252.748,109.522L1252.942,106.529C1250.324,106.358 1247.794,106.102 1245.342,105.767L1244.936,108.739ZM1260.53,109.772C1261.822,109.772 1263.134,109.752 1264.468,109.711L1264.376,106.713C1263.074,106.752 1261.792,106.772 1260.53,106.772L1260.53,109.772ZM1264.468,109.711C1265.886,109.668 1267.288,109.657 1268.67,109.673L1268.706,106.673C1267.282,106.656 1265.838,106.668 1264.376,106.713L1264.468,109.711ZM1277.052,110.116C1279.954,110.386 1282.74,110.766 1285.386,111.221L1285.894,108.264C1283.176,107.797 1280.314,107.407 1277.33,107.129L1277.052,110.116ZM1293.614,112.953C1296.596,113.697 1299.304,114.501 1301.696,115.291L1302.636,112.442C1300.18,111.631 1297.4,110.806 1294.34,110.043L1293.614,112.953ZM1309.548,118.237C1310.776,118.759 1311.722,119.195 1312.358,119.499C1312.674,119.651 1312.914,119.77 1313.074,119.85C1313.152,119.89 1313.212,119.92 1313.25,119.94C1313.268,119.949 1313.282,119.957 1313.292,119.961C1313.296,119.963 1313.298,119.965 1313.3,119.966C1313.3,119.966 1313.302,119.966 1313.302,119.966C1313.302,119.966 1313.302,119.966 1313.302,119.966C1313.302,119.966 1313.302,119.966 1313.302,119.966C1313.302,119.966 1313.302,119.966 1313.302,119.966C1313.302,119.966 1313.302,119.966 1314,118.639C1314.698,117.312 1314.698,117.312 1314.698,117.312C1314.698,117.312 1314.698,117.312 1314.698,117.312C1314.698,117.312 1314.698,117.311 1314.698,117.311C1314.698,117.311 1314.698,117.311 1314.696,117.311C1314.696,117.31 1314.694,117.309 1314.692,117.308C1314.688,117.306 1314.684,117.304 1314.678,117.3C1314.664,117.294 1314.646,117.284 1314.624,117.272C1314.576,117.249 1314.51,117.214 1314.422,117.17C1314.246,117.081 1313.988,116.954 1313.652,116.793C1312.98,116.471 1311.994,116.017 1310.722,115.476L1309.548,118.237Z" fill="#656575"/>
</g>
<path d="M3.364,1.377C3.02,0.623 2.13,0.291 1.377,0.636C0.623,0.98 0.291,1.87 0.636,2.623L3.364,1.377ZM1302.492,26.894L1301.398,25.867L1301.398,25.867L1302.492,26.894ZM1315.094,15.676C1315.66,15.072 1315.63,14.123 1315.028,13.555C1314.424,12.988 1313.474,13.018 1312.906,13.621L1315.094,15.676ZM0.636,2.623L12.144,27.815L14.873,26.568L3.364,1.377L0.636,2.623ZM12.144,27.815C17.896,40.404 26.555,59.361 36.667,76.806C41.724,85.53 47.161,93.906 52.799,100.935C58.424,107.948 64.319,113.708 70.314,117.101L71.792,114.491C66.277,111.369 60.663,105.944 55.139,99.058C49.629,92.189 44.276,83.952 39.263,75.302C29.234,58 20.631,39.171 14.873,26.568L12.144,27.815ZM70.314,117.101C82.526,124.015 94.68,120.891 106.437,112.691C118.144,104.525 129.774,91.131 141.274,76.839L138.937,74.959C127.419,89.272 116.031,102.341 104.721,110.23C93.46,118.085 82.596,120.607 71.792,114.491L70.314,117.101ZM141.274,76.839C152.831,62.476 164.275,47.185 175.751,34.319C187.243,21.435 198.548,11.245 209.696,6.962L208.62,4.162C196.75,8.723 185.038,19.4 173.512,32.322C161.971,45.262 150.397,60.716 138.937,74.959L141.274,76.839ZM209.696,6.962C220.714,2.728 231.768,4.208 242.988,10.08C254.254,15.977 265.618,26.273 277.076,39.533L279.346,37.571C267.786,24.194 256.132,13.573 244.38,7.423C232.582,1.248 220.62,-0.45 208.62,4.162L209.696,6.962ZM277.076,39.533C282.8,46.158 288.532,53.501 294.29,60.894C300.04,68.275 305.816,75.706 311.598,82.452C317.378,89.196 323.2,95.302 329.058,100.025C334.908,104.74 340.882,108.15 346.966,109.378L347.56,106.438C342.136,105.343 336.6,102.251 330.942,97.689C325.29,93.134 319.604,87.185 313.876,80.5C308.148,73.818 302.416,66.446 296.658,59.051C290.906,51.668 285.13,44.264 279.346,37.571L277.076,39.533ZM346.966,109.378C359.14,111.836 371.136,105.431 382.598,98.1C388.432,94.369 394.084,90.423 399.826,86.965C405.538,83.527 411.146,80.696 416.692,79.259L415.94,76.355C409.976,77.9 404.076,80.904 398.278,84.395C392.514,87.866 386.656,91.944 380.982,95.573C369.426,102.963 358.404,108.627 347.56,106.438L346.966,109.378ZM416.692,79.259C427.728,76.399 438.864,78.978 450.244,83.932C461.684,88.914 473.008,96.112 484.66,102.362L486.078,99.719C474.712,93.622 463.018,86.222 451.44,81.182C439.804,76.115 427.922,73.25 415.94,76.355L416.692,79.259ZM484.66,102.362C507.79,114.769 531.09,122.746 554.496,121.574L554.346,118.577C531.716,119.711 508.982,112.005 486.078,99.719L484.66,102.362ZM554.496,121.574C577.946,120.399 601.294,110.052 624.518,87.51L622.428,85.357C599.618,107.497 576.932,117.446 554.346,118.577L554.496,121.574ZM624.518,87.51C636.04,76.327 647.714,61.934 659.094,49.778C670.62,37.469 681.882,27.404 692.958,24.073L692.094,21.2C680.154,24.791 668.398,35.453 656.904,47.728C645.27,60.155 633.926,74.199 622.428,85.357L624.518,87.51ZM692.958,24.073C703.948,20.769 715.018,24.024 726.568,27.963C737.942,31.841 749.838,36.417 761.778,34.826L761.38,31.852C750.302,33.329 739.18,29.094 727.536,25.123C716.07,21.213 704.122,17.584 692.094,21.2L692.958,24.073ZM761.778,34.826C767.77,34.027 773.694,31.693 779.508,28.814C785.296,25.947 791.144,22.448 796.826,19.329C808.374,12.991 819.38,8.161 830.242,11.084L831.022,8.187C818.866,4.916 806.854,10.404 795.384,16.699C789.558,19.897 783.896,23.293 778.176,26.126C772.48,28.946 766.898,31.117 761.38,31.852L761.778,34.826ZM830.242,11.084C835.698,12.552 841.258,16.012 846.952,20.607C852.638,25.194 858.338,30.812 864.104,36.495C869.848,42.154 875.656,47.878 881.48,52.566C887.296,57.246 893.244,60.995 899.3,62.601L900.068,59.701C894.614,58.255 889.056,54.812 883.362,50.229C877.676,45.653 871.978,40.041 866.21,34.358C860.468,28.7 854.66,22.971 848.836,18.272C843.022,13.581 837.074,9.816 831.022,8.187L830.242,11.084ZM899.3,62.601C911.496,65.836 923.504,60.246 935.06,52.314C940.868,48.327 946.668,43.671 952.408,39.094C958.17,34.501 963.876,29.986 969.566,26.204L967.906,23.705C962.09,27.57 956.286,32.166 950.538,36.748C944.772,41.346 939.062,45.927 933.362,49.841C921.898,57.71 910.89,62.571 900.068,59.701L899.3,62.601ZM969.566,26.204C992.248,11.133 1014.85,7.632 1037.466,12.631L1038.114,9.702C1014.694,4.525 991.26,8.188 967.906,23.705L969.566,26.204ZM1037.466,12.631C1048.822,15.142 1060.212,19.799 1071.73,24.679C1083.204,29.54 1094.816,34.627 1106.44,37.861L1107.244,34.97C1095.85,31.801 1084.446,26.808 1072.9,21.917C1061.402,17.045 1049.774,12.28 1038.114,9.702L1037.466,12.631ZM1106.44,37.861C1118.074,41.096 1129.7,42.471 1141.176,43.953C1152.688,45.439 1164.072,47.035 1175.436,50.684L1176.354,47.828C1164.698,44.086 1153.066,42.463 1141.56,40.977C1130.02,39.487 1118.628,38.137 1107.244,34.97L1106.44,37.861ZM1175.436,50.684C1181.12,52.51 1186.82,54.855 1192.57,57.3C1198.302,59.737 1204.1,62.279 1209.894,64.45C1221.476,68.788 1233.306,71.748 1245.228,69.481L1244.666,66.534C1233.572,68.643 1222.382,65.924 1210.948,61.64C1205.232,59.5 1199.522,56.995 1193.744,54.54C1187.988,52.092 1182.178,49.699 1176.354,47.828L1175.436,50.684ZM1245.228,69.481C1257.106,67.222 1268.85,59.815 1278.982,51.564C1289.14,43.293 1297.834,34.04 1303.584,27.921L1301.398,25.867C1295.64,31.993 1287.07,41.108 1277.088,49.238C1267.078,57.389 1255.806,64.415 1244.666,66.534L1245.228,69.481ZM1303.584,27.921L1315.094,15.676L1312.906,13.621L1301.398,25.867L1303.584,27.921Z" fill="#006AFF" fill-opacity="0.8"/>
<defs>
<linearGradient id="pf_0_1_7994" x1="658" y1="-54.933" x2="658" y2="268.367" gradientUnits="userSpaceOnUse">
<stop stop-color="#006AFF" stop-opacity="0.5"/>
<stop offset="1" stop-color="#D9D9D9" stop-opacity="0.5"/>
</linearGradient>
</defs>
</svg>
