<svg width="76" height="44" viewBox="0 0 76 44" fill="none" xmlns="http://www.w3.org/2000/svg" xmlns:xlink="http://www.w3.org/1999/xlink">
<path d="M0,10.942L5.872,10.942L4.026,5.847L9.423,5.847L7.934,1.022C14.615,1.465 20.563,3.85 26.284,6.926C21.318,5.599 16.439,3.99 11.107,3.321C11.561,4.746 11.992,5.944 12.316,7.175C14.317,14.925 16.288,22.686 18.231,30.458C18.523,31.537 18.382,33.048 19.062,33.761C19.742,34.473 21.146,34.225 22.236,34.376C26.608,34.991 30.871,35.909 34.757,38.186C35.514,38.65 36.236,39.169 36.916,39.741C28.301,39.117 19.648,40.218 11.463,42.979C8.992,31.915 5.689,21.11 0,10.942ZM7.124,7.455C7.513,8.394 7.826,9.139 8.128,9.895C11.321,18.356 13.918,27.031 15.9,35.855C16.17,36.934 16.612,37.161 17.648,37.128C20.444,37.042 23.24,37.031 26.035,37.128C27.687,37.128 29.338,37.463 30.99,37.647C30.689,37.358 30.316,37.157 29.911,37.064C26.308,36.177 22.596,35.814 18.89,35.984C17.81,35.984 17.433,35.671 17.173,34.667C14.82,25.773 12.446,16.911 10.103,8.06C9.985,7.617 9.812,7.196 9.661,6.732L7.124,7.455ZM14.518,39.525L6.401,11.784L3.659,12.658C7.677,21.73 10.836,31.158 13.093,40.82L19.645,39.093L19.581,38.78L14.518,39.525Z" fill="#00ABFF"/>
<path d="M64.808,3.04L49.416,6.937C55.363,3.871 61.289,1.486 68.014,1L66.513,5.836L71.91,5.836L70.021,10.898L75.893,10.898C70.324,21.109 66.924,31.86 64.473,43C56.242,40.203 47.522,39.133 38.859,39.859C40.809,38.099 43.157,36.839 45.702,36.189C48.941,35.347 52.341,34.786 55.676,34.214C56.658,34.041 57.079,33.793 57.295,32.702C59.034,22.99 61.483,13.419 64.624,4.066C64.678,3.904 64.689,3.731 64.808,3.04ZM66.319,6.71C66.157,7.131 65.995,7.476 65.887,7.79C65.218,10.197 64.516,12.593 63.89,15.011C62.199,21.552 60.523,28.097 58.86,34.645C58.623,35.563 58.191,35.876 57.177,35.908C54.208,36.005 51.24,36.221 48.282,36.524C47.04,36.728 45.813,37.02 44.612,37.398L59.81,36.707C62.228,26.992 64.765,17.04 68.802,7.401L66.319,6.71ZM62.887,40.83C65.118,31.157 68.27,21.72 72.299,12.647L69.568,11.794C66.826,21.131 64.171,30.338 61.451,39.492L56.54,38.79L56.54,39.114L62.887,40.83Z" fill="#00ABFF"/>
<path d="M7.124,7.455L9.661,6.71C9.812,7.174 9.984,7.595 10.103,8.038C12.446,16.889 14.799,25.751 17.098,34.624C17.357,35.627 17.691,35.984 18.814,35.941C22.52,35.77 26.232,36.134 29.835,37.02C30.241,37.113 30.614,37.315 30.914,37.603C29.263,37.419 27.611,37.128 25.96,37.085C23.164,36.988 20.368,36.998 17.573,37.085C16.493,37.085 16.094,36.912 15.824,35.811C13.863,27.022 11.291,18.38 8.128,9.948C7.826,9.139 7.513,8.394 7.124,7.455Z" fill="#171B36"/>
<path d="M14.518,39.524L19.581,38.758L19.645,39.071L13.093,40.82C10.836,31.158 7.677,21.729 3.659,12.658L6.401,11.783L14.518,39.524Z" fill="#171B36"/>
<path d="M66.319,6.71L68.802,7.444C64.765,17.083 62.228,27.035 59.81,36.75L44.612,37.441C45.813,37.063 47.04,36.771 48.282,36.567C51.24,36.264 54.208,36.048 57.176,35.951C58.191,35.951 58.623,35.606 58.86,34.688C60.523,28.14 62.199,21.595 63.89,15.054C64.516,12.636 65.218,10.24 65.887,7.833C65.995,7.498 66.157,7.153 66.319,6.71Z" fill="#171B36"/>
<path d="M62.887,40.83L56.497,39.092L56.497,38.769L61.408,39.47C64.085,30.317 66.805,21.12 69.525,11.772L72.256,12.625C68.241,21.707 65.103,31.151 62.887,40.83Z" fill="#171B36"/>
</svg>
