<svg width="40" height="40" viewBox="0 0 40 40" fill="none" xmlns="http://www.w3.org/2000/svg" xmlns:xlink="http://www.w3.org/1999/xlink">
<path d="M23.693,20C23.693,22.04 22.04,23.693 20,23.693L20,25.693C23.144,25.693 25.693,23.144 25.693,20L23.693,20ZM20,23.693C17.96,23.693 16.307,22.04 16.307,20L14.307,20C14.307,23.144 16.856,25.693 20,25.693L20,23.693ZM16.307,20C16.307,17.96 17.96,16.307 20,16.307L20,14.307C16.856,14.307 14.307,16.856 14.307,20L16.307,20ZM20,16.307C22.04,16.307 23.693,17.96 23.693,20L25.693,20C25.693,16.856 23.144,14.307 20,14.307L20,16.307Z" fill="#FFFFFF" fill-opacity="0.75"/>
<path d="M32.649,27.887L31.577,28.936L31.588,28.948L32.649,27.887ZM32.747,27.985L31.687,29.046L31.687,29.047L32.747,27.985ZM32.747,32.616L31.687,31.555L31.686,31.556L32.747,32.616ZM28.116,32.616L29.178,31.556L29.177,31.556L28.116,32.616ZM28.018,32.518L29.079,31.457L29.067,31.446L28.018,32.518ZM25.04,31.978L25.631,33.357L25.646,33.35L25.04,31.978ZM23.404,34.449L21.904,34.443L21.904,34.449L23.404,34.449ZM16.858,34.58L18.358,34.58C18.358,34.568 18.358,34.557 18.358,34.545L16.858,34.58ZM15.091,32.109L14.485,33.481C14.514,33.494 14.543,33.506 14.573,33.517L15.091,32.109ZM12.113,32.649L11.064,31.577L11.052,31.588L12.113,32.649ZM12.015,32.747L10.954,31.687L10.953,31.687L12.015,32.747ZM7.384,32.747L8.445,31.687L8.444,31.686L7.384,32.747ZM6.424,30.432L7.924,30.432L6.424,30.432ZM7.384,28.116L8.444,29.178L8.444,29.177L7.384,28.116ZM7.482,28.018L8.543,29.079L8.554,29.067L7.482,28.018ZM8.022,25.04L6.643,25.631L6.65,25.646L8.022,25.04ZM5.551,23.404L5.557,21.904L5.551,21.904L5.551,23.404ZM2,20.131L0.5,20.131L2,20.131ZM5.273,16.858L5.273,18.358L5.273,16.858ZM5.42,16.858L5.42,18.358C5.432,18.358 5.443,18.358 5.455,18.358L5.42,16.858ZM7.891,15.091L6.519,14.485C6.506,14.514 6.494,14.543 6.483,14.573L7.891,15.091ZM7.351,12.113L8.423,11.064L8.412,11.052L7.351,12.113ZM7.253,12.015L8.313,10.954L8.313,10.953L7.253,12.015ZM7.253,7.384L8.313,8.445L8.314,8.444L7.253,7.384ZM11.884,7.384L10.822,8.444L10.823,8.444L11.884,7.384ZM11.982,7.482L10.921,8.543L10.933,8.554L11.982,7.482ZM14.96,8.022L14.96,6.522C14.751,6.522 14.545,6.565 14.354,6.65L14.96,8.022ZM15.091,8.022L15.091,9.522C15.294,9.522 15.495,9.481 15.682,9.401L15.091,8.022ZM16.727,5.551L18.227,5.557L18.227,5.551L16.727,5.551ZM20,2L20,0.5L20,2ZM23.273,5.42L21.773,5.42L21.773,5.426L23.273,5.42ZM24.909,7.891L25.515,6.519L25.5,6.512L24.909,7.891ZM27.887,7.351L28.936,8.423L28.948,8.412L27.887,7.351ZM27.985,7.253L29.046,8.313L29.047,8.313L27.985,7.253ZM30.301,6.293L30.301,7.793L30.301,6.293ZM32.616,7.253L31.555,8.313L31.556,8.314L32.616,7.253ZM32.616,11.884L31.556,10.822L31.556,10.823L32.616,11.884ZM32.518,11.982L31.457,10.921L31.446,10.933L32.518,11.982ZM31.978,14.96L33.478,14.96C33.478,14.751 33.435,14.545 33.35,14.354L31.978,14.96ZM31.978,15.091L30.478,15.091C30.478,15.294 30.519,15.495 30.599,15.682L31.978,15.091ZM34.449,16.727L34.443,18.227L34.449,18.227L34.449,16.727ZM34.58,23.273L34.58,21.773L34.574,21.773L34.58,23.273ZM30.737,24.303C30.398,25.071 30.297,25.923 30.447,26.749L33.398,26.213C33.356,25.977 33.385,25.734 33.481,25.515L30.737,24.303ZM30.447,26.749C30.596,27.574 30.99,28.336 31.577,28.936L33.721,26.838C33.554,26.667 33.441,26.449 33.398,26.213L30.447,26.749ZM31.588,28.948L31.687,29.046L33.808,26.925L33.71,26.827L31.588,28.948ZM31.687,29.047C31.852,29.211 31.983,29.407 32.072,29.622L34.843,28.473C34.603,27.894 34.251,27.367 33.807,26.924L31.687,29.047ZM32.072,29.622C32.161,29.837 32.207,30.068 32.207,30.301L35.207,30.301C35.207,29.674 35.083,29.053 34.843,28.473L32.072,29.622ZM32.207,30.301C32.207,30.534 32.161,30.765 32.072,30.98L34.843,32.129C35.083,31.549 35.207,30.928 35.207,30.301L32.207,30.301ZM32.072,30.98C31.983,31.195 31.852,31.39 31.687,31.555L33.807,33.678C34.251,33.234 34.603,32.708 34.843,32.129L32.072,30.98ZM31.686,31.556C31.521,31.721 31.326,31.852 31.111,31.941L32.259,34.712C32.839,34.472 33.365,34.12 33.809,33.676L31.686,31.556ZM31.111,31.941C30.895,32.03 30.665,32.076 30.432,32.076L30.432,35.076C31.059,35.076 31.68,34.953 32.259,34.712L31.111,31.941ZM30.432,32.076C30.199,32.076 29.968,32.03 29.753,31.941L28.604,34.712C29.184,34.953 29.805,35.076 30.432,35.076L30.432,32.076ZM29.753,31.941C29.538,31.852 29.342,31.721 29.178,31.556L27.055,33.676C27.498,34.12 28.025,34.472 28.604,34.712L29.753,31.941ZM29.177,31.556L29.079,31.458L26.958,33.579L27.056,33.677L29.177,31.556ZM29.067,31.446C28.467,30.859 27.705,30.465 26.879,30.316L26.344,33.268C26.58,33.31 26.798,33.423 26.969,33.59L29.067,31.446ZM26.879,30.316C26.054,30.166 25.202,30.267 24.434,30.606L25.646,33.35C25.865,33.254 26.108,33.225 26.344,33.268L26.879,30.316ZM24.449,30.599C23.696,30.922 23.054,31.458 22.602,32.141L25.103,33.797C25.232,33.602 25.416,33.449 25.631,33.357L24.449,30.599ZM22.602,32.141C22.15,32.824 21.907,33.624 21.904,34.443L24.904,34.455C24.905,34.221 24.974,33.992 25.103,33.797L22.602,32.141ZM21.904,34.449L21.904,34.727L24.904,34.727L24.904,34.449L21.904,34.449ZM21.904,34.727C21.904,35.197 21.717,35.648 21.384,35.981L23.506,38.102C24.401,37.207 24.904,35.993 24.904,34.727L21.904,34.727ZM21.384,35.981C21.052,36.313 20.601,36.5 20.131,36.5L20.131,39.5C21.397,39.5 22.611,38.997 23.506,38.102L21.384,35.981ZM20.131,36.5C19.661,36.5 19.21,36.313 18.877,35.981L16.756,38.102C17.651,38.997 18.865,39.5 20.131,39.5L20.131,36.5ZM18.877,35.981C18.545,35.648 18.358,35.197 18.358,34.727L15.358,34.727C15.358,35.993 15.861,37.207 16.756,38.102L18.877,35.981ZM18.358,34.727L18.358,34.58L15.358,34.58L15.358,34.727L18.358,34.727ZM18.358,34.545C18.338,33.702 18.065,32.885 17.575,32.2L15.135,33.945C15.275,34.141 15.353,34.374 15.359,34.615L18.358,34.545ZM17.575,32.2C17.085,31.514 16.4,30.992 15.609,30.701L14.573,33.517C14.799,33.6 14.995,33.749 15.135,33.945L17.575,32.2ZM15.697,30.737C14.929,30.398 14.077,30.297 13.251,30.447L13.787,33.398C14.023,33.356 14.266,33.385 14.485,33.481L15.697,30.737ZM13.251,30.447C12.426,30.596 11.664,30.99 11.064,31.577L13.162,33.721C13.333,33.554 13.551,33.441 13.787,33.398L13.251,30.447ZM11.052,31.588L10.954,31.687L13.075,33.808L13.173,33.71L11.052,31.588ZM10.953,31.687C10.789,31.852 10.593,31.983 10.378,32.072L11.527,34.843C12.106,34.603 12.633,34.251 13.076,33.807L10.953,31.687ZM10.378,32.072C10.163,32.161 9.932,32.207 9.699,32.207L9.699,35.207C10.326,35.207 10.947,35.083 11.527,34.843L10.378,32.072ZM9.699,32.207C9.466,32.207 9.235,32.161 9.02,32.072L7.871,34.843C8.451,35.083 9.072,35.207 9.699,35.207L9.699,32.207ZM9.02,32.072C8.805,31.983 8.61,31.852 8.445,31.687L6.322,33.807C6.766,34.251 7.292,34.603 7.871,34.843L9.02,32.072ZM8.444,31.686C8.279,31.521 8.148,31.326 8.059,31.111L5.288,32.259C5.528,32.839 5.88,33.365 6.324,33.809L8.444,31.686ZM8.059,31.111C7.97,30.895 7.924,30.665 7.924,30.432L4.924,30.432C4.924,31.059 5.047,31.68 5.288,32.259L8.059,31.111ZM7.924,30.432C7.924,30.199 7.97,29.968 8.059,29.753L5.288,28.604C5.047,29.184 4.924,29.805 4.924,30.432L7.924,30.432ZM8.059,29.753C8.148,29.538 8.279,29.342 8.444,29.178L6.324,27.055C5.88,27.498 5.528,28.025 5.288,28.604L8.059,29.753ZM8.444,29.177L8.542,29.079L6.421,26.958L6.323,27.056L8.444,29.177ZM8.554,29.067C9.141,28.467 9.535,27.705 9.684,26.879L6.732,26.344C6.69,26.58 6.577,26.798 6.41,26.969L8.554,29.067ZM9.684,26.879C9.834,26.054 9.733,25.202 9.394,24.434L6.65,25.646C6.746,25.865 6.775,26.108 6.732,26.344L9.684,26.879ZM9.401,24.449C9.078,23.696 8.542,23.054 7.859,22.602L6.203,25.103C6.398,25.232 6.551,25.416 6.643,25.631L9.401,24.449ZM7.859,22.602C7.176,22.15 6.376,21.907 5.557,21.904L5.545,24.904C5.779,24.905 6.008,24.974 6.203,25.103L7.859,22.602ZM5.551,21.904L5.273,21.904L5.273,24.904L5.551,24.904L5.551,21.904ZM5.273,21.904C4.803,21.904 4.352,21.717 4.019,21.384L1.898,23.506C2.793,24.401 4.007,24.904 5.273,24.904L5.273,21.904ZM4.019,21.384C3.687,21.052 3.5,20.601 3.5,20.131L0.5,20.131C0.5,21.397 1.003,22.611 1.898,23.506L4.019,21.384ZM3.5,20.131C3.5,19.661 3.687,19.21 4.019,18.877L1.898,16.756C1.003,17.651 0.5,18.865 0.5,20.131L3.5,20.131ZM4.019,18.877C4.352,18.545 4.803,18.358 5.273,18.358L5.273,15.358C4.007,15.358 2.793,15.861 1.898,16.756L4.019,18.877ZM5.273,18.358L5.42,18.358L5.42,15.358L5.273,15.358L5.273,18.358ZM5.455,18.358C6.298,18.338 7.115,18.065 7.8,17.575L6.055,15.135C5.859,15.275 5.626,15.353 5.385,15.359L5.455,18.358ZM7.8,17.575C8.486,17.085 9.008,16.4 9.299,15.609L6.483,14.573C6.4,14.799 6.251,14.995 6.055,15.135L7.8,17.575ZM9.263,15.697C9.602,14.929 9.703,14.077 9.553,13.251L6.602,13.787C6.644,14.023 6.615,14.266 6.519,14.485L9.263,15.697ZM9.553,13.251C9.404,12.426 9.01,11.664 8.423,11.064L6.279,13.162C6.446,13.333 6.559,13.551 6.602,13.787L9.553,13.251ZM8.412,11.052L8.313,10.954L6.192,13.075L6.29,13.173L8.412,11.052ZM8.313,10.953C8.148,10.789 8.017,10.593 7.928,10.378L5.157,11.527C5.397,12.106 5.749,12.633 6.193,13.076L8.313,10.953ZM7.928,10.378C7.839,10.163 7.793,9.932 7.793,9.699L4.793,9.699C4.793,10.326 4.916,10.947 5.157,11.527L7.928,10.378ZM7.793,9.699C7.793,9.466 7.839,9.235 7.928,9.02L5.157,7.871C4.916,8.451 4.793,9.072 4.793,9.699L7.793,9.699ZM7.928,9.02C8.017,8.805 8.148,8.61 8.313,8.445L6.193,6.322C5.749,6.766 5.397,7.292 5.157,7.871L7.928,9.02ZM8.314,8.444C8.479,8.279 8.674,8.148 8.889,8.059L7.741,5.288C7.161,5.528 6.635,5.88 6.191,6.324L8.314,8.444ZM8.889,8.059C9.105,7.97 9.335,7.924 9.568,7.924L9.568,4.924C8.941,4.924 8.32,5.047 7.741,5.288L8.889,8.059ZM9.568,7.924C9.801,7.924 10.032,7.97 10.247,8.059L11.396,5.288C10.816,5.047 10.195,4.924 9.568,4.924L9.568,7.924ZM10.247,8.059C10.462,8.148 10.658,8.279 10.822,8.444L12.945,6.324C12.502,5.88 11.975,5.528 11.396,5.288L10.247,8.059ZM10.823,8.444L10.921,8.542L13.042,6.421L12.944,6.323L10.823,8.444ZM10.933,8.554C11.533,9.141 12.295,9.535 13.121,9.684L13.656,6.732C13.42,6.69 13.202,6.577 13.031,6.41L10.933,8.554ZM13.121,9.684C13.946,9.834 14.798,9.733 15.566,9.394L14.354,6.65C14.135,6.746 13.892,6.775 13.656,6.732L13.121,9.684ZM14.96,9.522L15.091,9.522L15.091,6.522L14.96,6.522L14.96,9.522ZM15.682,9.401C16.435,9.078 17.077,8.542 17.529,7.859L15.028,6.203C14.899,6.398 14.715,6.551 14.5,6.643L15.682,9.401ZM17.529,7.859C17.981,7.176 18.224,6.376 18.227,5.557L15.227,5.545C15.226,5.779 15.157,6.008 15.028,6.203L17.529,7.859ZM18.227,5.551L18.227,5.273L15.227,5.273L15.227,5.551L18.227,5.551ZM18.227,5.273C18.227,4.803 18.414,4.352 18.747,4.019L16.625,1.898C15.73,2.793 15.227,4.007 15.227,5.273L18.227,5.273ZM18.747,4.019C19.079,3.687 19.53,3.5 20,3.5L20,0.5C18.734,0.5 17.52,1.003 16.625,1.898L18.747,4.019ZM20,3.5C20.47,3.5 20.921,3.687 21.253,4.019L23.375,1.898C22.48,1.003 21.266,0.5 20,0.5L20,3.5ZM21.253,4.019C21.586,4.352 21.773,4.803 21.773,5.273L24.773,5.273C24.773,4.007 24.27,2.793 23.375,1.898L21.253,4.019ZM21.773,5.273L21.773,5.42L24.773,5.42L24.773,5.273L21.773,5.273ZM21.773,5.426C21.776,6.245 22.019,7.045 22.471,7.728L24.972,6.072C24.843,5.877 24.774,5.648 24.773,5.414L21.773,5.426ZM22.471,7.728C22.923,8.411 23.565,8.947 24.318,9.27L25.5,6.512C25.285,6.42 25.101,6.267 24.972,6.072L22.471,7.728ZM24.303,9.263C25.071,9.602 25.923,9.703 26.749,9.553L26.213,6.602C25.977,6.644 25.734,6.615 25.515,6.519L24.303,9.263ZM26.749,9.553C27.574,9.404 28.336,9.01 28.936,8.423L26.838,6.279C26.667,6.446 26.449,6.559 26.213,6.602L26.749,9.553ZM28.948,8.412L29.046,8.313L26.925,6.192L26.827,6.29L28.948,8.412ZM29.047,8.313C29.211,8.148 29.407,8.017 29.622,7.928L28.473,5.157C27.894,5.397 27.367,5.749 26.924,6.193L29.047,8.313ZM29.622,7.928C29.837,7.839 30.068,7.793 30.301,7.793L30.301,4.793C29.674,4.793 29.053,4.917 28.473,5.157L29.622,7.928ZM30.301,7.793C30.534,7.793 30.765,7.839 30.98,7.928L32.129,5.157C31.549,4.917 30.928,4.793 30.301,4.793L30.301,7.793ZM30.98,7.928C31.195,8.017 31.39,8.148 31.555,8.313L33.678,6.193C33.234,5.749 32.708,5.397 32.129,5.157L30.98,7.928ZM31.556,8.314C31.721,8.479 31.852,8.674 31.941,8.889L34.712,7.741C34.472,7.161 34.12,6.635 33.676,6.191L31.556,8.314ZM31.941,8.889C32.03,9.105 32.076,9.335 32.076,9.568L35.076,9.568C35.076,8.941 34.953,8.32 34.712,7.741L31.941,8.889ZM32.076,9.568C32.076,9.801 32.03,10.032 31.941,10.247L34.712,11.396C34.953,10.816 35.076,10.195 35.076,9.568L32.076,9.568ZM31.941,10.247C31.852,10.462 31.721,10.658 31.556,10.822L33.676,12.945C34.12,12.502 34.472,11.975 34.712,11.396L31.941,10.247ZM31.556,10.823L31.458,10.921L33.579,13.042L33.677,12.944L31.556,10.823ZM31.446,10.933C30.859,11.533 30.465,12.295 30.316,13.121L33.268,13.656C33.31,13.42 33.423,13.202 33.59,13.031L31.446,10.933ZM30.316,13.121C30.166,13.946 30.267,14.798 30.606,15.566L33.35,14.354C33.254,14.135 33.225,13.892 33.268,13.656L30.316,13.121ZM30.478,14.96L30.478,15.091L33.478,15.091L33.478,14.96L30.478,14.96ZM30.599,15.682C30.922,16.435 31.458,17.077 32.141,17.529L33.797,15.028C33.602,14.899 33.449,14.715 33.357,14.5L30.599,15.682ZM32.141,17.529C32.824,17.981 33.624,18.224 34.443,18.227L34.455,15.227C34.221,15.226 33.992,15.157 33.797,15.028L32.141,17.529ZM34.449,18.227L34.727,18.227L34.727,15.227L34.449,15.227L34.449,18.227ZM34.727,18.227C35.197,18.227 35.648,18.414 35.981,18.747L38.102,16.625C37.207,15.73 35.993,15.227 34.727,15.227L34.727,18.227ZM35.981,18.747C36.313,19.079 36.5,19.53 36.5,20L39.5,20C39.5,18.734 38.997,17.52 38.102,16.625L35.981,18.747ZM36.5,20C36.5,20.47 36.313,20.921 35.981,21.253L38.102,23.375C38.997,22.48 39.5,21.266 39.5,20L36.5,20ZM35.981,21.253C35.648,21.586 35.197,21.773 34.727,21.773L34.727,24.773C35.993,24.773 37.207,24.27 38.102,23.375L35.981,21.253ZM34.727,21.773L34.58,21.773L34.58,24.773L34.727,24.773L34.727,21.773ZM34.574,21.773C33.755,21.776 32.955,22.019 32.272,22.471L33.928,24.972C34.123,24.843 34.352,24.774 34.586,24.773L34.574,21.773ZM32.272,22.471C31.589,22.923 31.053,23.565 30.73,24.318L33.488,25.5C33.58,25.285 33.733,25.101 33.928,24.972L32.272,22.471Z" fill="#FFFFFF" fill-opacity="0.75"/>
</svg>
