<svg width="46" height="44" viewBox="0 0 46 44" fill="none" xmlns="http://www.w3.org/2000/svg" xmlns:xlink="http://www.w3.org/1999/xlink">
<path d="M20.799,2.201L21.86,3.262C22.141,2.98 22.299,2.599 22.299,2.201L20.799,2.201ZM2.414,20.586L1.353,19.525L1.353,19.526L2.414,20.586ZM1.828,22L0.328,22L1.828,22ZM2.414,23.414L1.353,24.475L1.353,24.475L2.414,23.414ZM20.8,41.8L19.739,42.861L19.739,42.861L20.8,41.8ZM23.628,41.8L24.688,42.861L24.689,42.861L23.628,41.8ZM42.013,23.415L43.074,24.476L43.074,24.476L42.013,23.415ZM42.013,20.587L43.074,19.527L43.074,19.526L42.013,20.587ZM23.627,2.2L24.688,1.139L24.687,1.139L23.627,2.2ZM20.799,2.2L19.738,1.139C19.457,1.421 19.299,1.802 19.299,2.2L20.799,2.2ZM19.738,1.14L1.353,19.525L3.475,21.647L21.86,3.262L19.738,1.14ZM1.353,19.526C0.697,20.182 0.328,21.072 0.328,22L3.328,22C3.328,21.868 3.381,21.74 3.475,21.647L1.353,19.526ZM0.328,22C0.328,22.928 0.697,23.818 1.353,24.475L3.475,22.354C3.381,22.26 3.328,22.133 3.328,22L0.328,22ZM1.353,24.475L19.739,42.861L21.861,40.74L3.475,22.354L1.353,24.475ZM19.739,42.861C20.396,43.517 21.286,43.886 22.214,43.886L22.214,40.886C22.081,40.886 21.954,40.833 21.86,40.739L19.739,42.861ZM22.214,43.886C23.142,43.886 24.032,43.517 24.688,42.861L22.567,40.739C22.474,40.833 22.347,40.886 22.214,40.886L22.214,43.886ZM24.689,42.861L43.074,24.476L40.952,22.355L22.567,40.74L24.689,42.861ZM43.074,24.476C43.73,23.819 44.099,22.929 44.099,22.001L41.099,22.001C41.099,22.134 41.046,22.261 40.952,22.355L43.074,24.476ZM44.099,22.001C44.099,21.073 43.73,20.183 43.074,19.527L40.952,21.648C41.046,21.741 41.099,21.869 41.099,22.001L44.099,22.001ZM43.074,19.526L24.688,1.139L22.566,3.261L40.952,21.648L43.074,19.526ZM24.687,1.139C24.031,0.483 23.141,0.115 22.213,0.115L22.213,3.115C22.346,3.115 22.473,3.167 22.566,3.261L24.687,1.139ZM22.213,0.115C21.285,0.115 20.395,0.483 19.738,1.139L21.859,3.261C21.953,3.167 22.08,3.115 22.213,3.115L22.213,0.115ZM19.299,2.2L19.299,2.201L22.299,2.201L22.299,2.2L19.299,2.2Z" fill="#FFFFFF" fill-opacity="0.75"/>
<path d="M16,20.5C15.172,20.5 14.5,21.172 14.5,22C14.5,22.828 15.172,23.5 16,23.5L16,20.5ZM28,23.5C28.828,23.5 29.5,22.828 29.5,22C29.5,21.172 28.828,20.5 28,20.5L28,23.5ZM23.5,16C23.5,15.172 22.828,14.5 22,14.5C21.172,14.5 20.5,15.172 20.5,16L23.5,16ZM20.5,28C20.5,28.828 21.172,29.5 22,29.5C22.828,29.5 23.5,28.828 23.5,28L20.5,28ZM16,23.5L28,23.5L28,20.5L16,20.5L16,23.5ZM20.5,16L20.5,28L23.5,28L23.5,16L20.5,16Z" fill="#FFFFFF" fill-opacity="0.75"/>
</svg>
