<svg width="40" height="40" viewBox="0 0 40 40" fill="none" xmlns="http://www.w3.org/2000/svg" xmlns:xlink="http://www.w3.org/1999/xlink">
<path d="M20,23C22.122,23 24.157,22.157 25.657,20.657C27.157,19.157 28,17.122 28,15C28,12.878 27.157,10.843 25.657,9.343C24.157,7.843 22.122,7 20,7C17.878,7 15.843,7.843 14.343,9.343C12.843,10.843 12,12.878 12,15C12,17.122 12.843,19.157 14.343,20.657C15.843,22.157 17.878,23 20,23ZM20,21C20.788,21 21.568,20.845 22.296,20.543C23.024,20.242 23.685,19.8 24.243,19.243C24.8,18.685 25.242,18.024 25.543,17.296C25.845,16.568 26,15.788 26,15C26,14.212 25.845,13.432 25.543,12.704C25.242,11.976 24.8,11.315 24.243,10.757C23.685,10.2 23.024,9.758 22.296,9.457C21.568,9.155 20.788,9 20,9C18.409,9 16.883,9.632 15.757,10.757C14.632,11.883 14,13.409 14,15C14,16.591 14.632,18.117 15.757,19.243C16.883,20.368 18.409,21 20,21Z" clip-rule="evenodd" fill-rule="evenodd" fill="#FFFFFF" stroke="#FFFFFF" stroke-width="0.2" stroke-miterlimit="3.999327"/>
<path d="M40,20C40,31.046 31.046,40 20,40C8.954,40 0,31.046 0,20C0,8.954 8.954,0 20,0C31.046,0 40,8.954 40,20ZM29.63,35.21C26.751,37.038 23.41,38.006 20,38C16.508,38.006 13.091,36.991 10.169,35.08C9.929,34.78 9.686,34.47 9.439,34.15C9.153,33.775 8.999,33.316 9,32.845C9,31.768 9.774,30.865 10.809,30.714C17.654,29.714 22.367,29.8 29.221,30.749C29.717,30.822 30.17,31.071 30.497,31.451C30.824,31.831 31.003,32.317 31,32.818C31,33.298 30.835,33.764 30.537,34.128C30.23,34.502 29.927,34.863 29.63,35.21ZM32.985,32.466C32.825,30.594 31.404,29.032 29.495,28.768C22.479,27.797 17.575,27.704 10.52,28.735C8.6,29.015 7.185,30.591 7.017,32.468C3.792,29.119 1.994,24.649 2,20C2,10.059 10.059,2 20,2C29.941,2 38,10.059 38,20C38.006,24.648 36.208,29.117 32.985,32.466Z" clip-rule="evenodd" fill-rule="evenodd" fill="#FFFFFF" stroke="#FFFFFF" stroke-width="0.2" stroke-miterlimit="3.999327"/>
</svg>
