<svg width="756" height="418" viewBox="0 0 756 418" fill="none" xmlns="http://www.w3.org/2000/svg" xmlns:xlink="http://www.w3.org/1999/xlink">
<path d="M0,98.944L58.44,98.944L40.07,48.238L93.784,48.238L78.959,0.218C145.457,4.622 204.65,28.364 261.586,58.981C212.17,45.767 163.612,29.76 110.543,23.1C115.055,37.28 119.352,49.205 122.575,61.451C142.485,138.584 162.108,215.824 181.445,293.172C184.345,303.916 182.949,318.956 189.717,326.046C196.485,333.136 210.45,330.664 221.3,332.168C264.808,338.292 307.242,347.424 345.916,370.09C353.454,374.704 360.636,379.876 367.402,385.56C281.66,379.358 195.544,390.314 114.088,417.788C89.487,307.676 56.614,200.14 0,98.944ZM70.902,64.245C74.769,73.591 77.885,81.003 80.893,88.523C112.675,172.733 138.521,259.066 158.241,346.886C160.926,357.628 165.331,359.884 175.644,359.562C203.468,358.704 231.292,358.596 259.114,359.562C275.552,359.562 291.988,362.892 308.424,364.72C305.432,361.852 301.72,359.848 297.682,358.918C261.824,350.096 224.886,346.478 187.998,348.176C177.255,348.176 173.495,345.06 170.917,335.07C147.498,246.55 123.864,158.351 100.552,70.26C99.37,65.856 97.651,61.666 96.148,57.047L70.902,64.245ZM144.49,383.412L63.704,107.323L36.418,116.025C76.409,206.31 107.844,300.146 130.309,396.302L195.518,379.114L194.873,376L144.49,383.412Z" fill="#FFFFFF"/>
<path d="M644.994,20.304L491.802,59.085C550.995,28.576 609.972,4.834 676.9,0L661.966,48.127L715.68,48.127L696.88,98.511L755.322,98.511C699.888,200.138 666.05,307.134 641.664,418C559.742,390.16 472.959,379.518 386.738,386.738C406.142,369.218 429.517,356.684 454.847,350.214C487.075,341.834 520.915,336.248 554.11,330.554C563.886,328.836 568.076,326.364 570.224,315.514C587.526,218.854 611.906,123.597 643.168,30.509C643.704,28.898 643.812,27.179 644.994,20.304ZM660.034,56.829C658.422,61.019 656.81,64.456 655.736,67.572C649.076,91.528 642.092,115.377 635.862,139.441C619.032,204.542 602.344,269.678 585.801,334.852C583.438,343.982 579.141,347.098 569.042,347.42C539.5,348.388 509.957,350.536 480.522,353.544C468.157,355.578 455.951,358.486 443.997,362.246L595.254,355.37C619.318,258.686 644.564,159.637 684.742,63.704L660.034,56.829ZM625.872,396.408C648.084,300.136 679.452,206.212 719.548,115.914L692.368,107.427C665.082,200.352 638.656,291.988 611.584,383.086L562.704,376.104L562.704,379.326L625.872,396.408Z" fill="#FFFFFF"/>
<path d="M70.901,64.241L96.146,56.829C97.65,61.448 99.369,65.638 100.551,70.042C123.863,158.133 147.282,246.331 170.164,334.637C172.742,344.627 176.072,348.173 187.245,347.743C224.132,346.045 261.071,349.663 296.929,358.485C300.967,359.415 304.679,361.419 307.671,364.287C291.235,362.459 274.799,359.559 258.362,359.129C230.538,358.163 202.714,358.271 174.891,359.129C164.148,359.129 160.173,357.411 157.487,346.453C137.97,258.979 112.376,172.971 80.892,89.057C77.884,81 74.768,73.587 70.901,64.241Z" fill="#171B36"/>
<path d="M144.489,383.408L194.872,375.782L195.517,378.896L130.309,396.3C107.843,300.143 76.408,206.306 36.417,116.021L63.704,107.32L144.489,383.408Z" fill="#171B36"/>
<path d="M660.03,56.829L684.738,64.134C644.56,160.066 619.315,259.115 595.251,355.799L443.994,362.675C455.948,358.915 468.154,356.007 480.519,353.973C509.954,350.965 539.497,348.817 569.039,347.849C579.137,347.849 583.434,344.413 585.798,335.281C602.342,270.109 619.029,204.971 635.859,139.87C642.09,115.806 649.072,91.957 655.734,68.001C656.808,64.671 658.42,61.233 660.03,56.829Z" fill="#171B36"/>
<path d="M625.872,396.407L562.275,379.111L562.275,375.889L611.155,382.871C637.797,291.773 664.869,200.245 691.94,107.213L719.119,115.7C679.158,206.082 647.933,300.079 625.872,396.407Z" fill="#171B36"/>
</svg>
