<svg width="120" height="68" viewBox="0 0 120 68" fill="none" xmlns="http://www.w3.org/2000/svg" xmlns:xlink="http://www.w3.org/1999/xlink">
<path d="M0,16.623L9.227,16.623L6.327,8.617L14.808,8.617L12.467,1.035C22.967,1.73 32.313,5.479 41.303,10.313C33.5,8.227 25.833,5.699 17.454,4.648C18.167,6.887 18.845,8.769 19.354,10.703C22.498,22.882 25.596,35.078 28.649,47.291C29.107,48.987 28.887,51.362 29.955,52.481C31.024,53.601 33.229,53.21 34.942,53.448C41.812,54.415 48.512,55.856 54.618,59.436C55.808,60.164 56.942,60.98 58.011,61.878C44.473,60.899 30.875,62.629 18.014,66.967C14.13,49.58 8.939,32.601 0,16.623ZM11.195,11.144C11.806,12.62 12.298,13.79 12.773,14.978C17.791,28.274 21.872,41.905 24.985,55.772C25.409,57.468 26.105,57.824 27.733,57.773C32.126,57.638 36.52,57.621 40.913,57.773C43.508,57.773 46.103,58.299 48.699,58.587C48.226,58.135 47.64,57.818 47.002,57.671C41.341,56.278 35.508,55.707 29.684,55.975C27.988,55.975 27.394,55.483 26.987,53.906C23.289,39.929 19.557,26.003 15.877,12.094C15.69,11.399 15.419,10.737 15.181,10.008L11.195,11.144ZM22.814,61.539L10.059,17.946L5.75,19.32C12.065,33.575 17.028,48.392 20.575,63.574L30.871,60.86L30.769,60.368L22.814,61.539Z" fill="#00ABFF"/>
<path d="M101.841,4.206L77.653,10.329C86.999,5.512 96.311,1.763 106.879,1L104.521,8.599L113.002,8.599L110.034,16.554L119.261,16.554C110.509,32.601 105.166,49.495 101.315,67C88.38,62.604 74.678,60.924 61.064,62.064C64.128,59.298 67.819,57.318 71.818,56.297C76.907,54.974 82.25,54.092 87.491,53.193C89.035,52.921 89.696,52.531 90.035,50.818C92.767,35.556 96.617,20.515 101.553,5.817C101.638,5.563 101.655,5.291 101.841,4.206ZM104.216,9.973C103.961,10.635 103.707,11.177 103.537,11.669C102.486,15.452 101.383,19.217 100.399,23.017C97.742,33.296 95.107,43.581 92.495,53.871C92.122,55.313 91.443,55.805 89.849,55.856C85.184,56.008 80.52,56.348 75.872,56.823C73.92,57.144 71.992,57.603 70.105,58.197L93.988,57.111C97.787,41.845 101.773,26.206 108.117,11.059L104.216,9.973ZM98.822,63.591C102.329,48.39 107.282,33.56 113.613,19.302L109.322,17.962C105.013,32.635 100.84,47.103 96.566,61.487L88.848,60.385L88.848,60.894L98.822,63.591Z" fill="#00ABFF"/>
<path d="M11.195,11.143L15.181,9.973C15.418,10.702 15.69,11.364 15.876,12.059C19.557,25.968 23.255,39.894 26.868,53.837C27.275,55.414 27.801,55.974 29.565,55.906C35.389,55.638 41.222,56.21 46.883,57.603C47.521,57.749 48.107,58.066 48.58,58.518C45.984,58.23 43.389,57.772 40.794,57.704C36.401,57.552 32.007,57.569 27.614,57.704C25.918,57.704 25.29,57.433 24.866,55.703C21.785,41.891 17.744,28.311 12.772,15.061C12.297,13.789 11.805,12.619 11.195,11.143Z" fill="#FFFFFF"/>
<path d="M22.814,61.538L30.769,60.334L30.871,60.826L20.575,63.574C17.028,48.391 12.064,33.575 5.75,19.319L10.058,17.945L22.814,61.538Z" fill="#FFFFFF"/>
<path d="M104.215,9.973L108.117,11.126C101.773,26.273 97.787,41.912 93.987,57.178L70.104,58.264C71.992,57.671 73.919,57.211 75.872,56.89C80.519,56.415 85.184,56.076 89.849,55.923C91.443,55.923 92.121,55.38 92.495,53.939C95.107,43.648 97.742,33.364 100.399,23.084C101.383,19.285 102.485,15.519 103.537,11.737C103.707,11.211 103.961,10.668 104.215,9.973Z" fill="#FFFFFF"/>
<path d="M98.822,63.59L88.78,60.86L88.78,60.351L96.498,61.453C100.705,47.069 104.979,32.618 109.254,17.928L113.545,19.268C107.235,33.539 102.305,48.381 98.822,63.59Z" fill="#FFFFFF"/>
</svg>
