<svg width="40" height="40" viewBox="0 0 40 40" fill="none" xmlns="http://www.w3.org/2000/svg" xmlns:xlink="http://www.w3.org/1999/xlink">
<path d="M15.253,26.919C14.471,27.7 14.471,28.967 15.253,29.748C16.034,30.529 17.3,30.529 18.081,29.748L15.253,26.919ZM25,20L26.414,21.414C26.789,21.039 27,20.531 27,20C27,19.47 26.789,18.961 26.414,18.586L25,20ZM18.081,10.253C17.3,9.471 16.034,9.471 15.253,10.253C14.471,11.034 14.471,12.3 15.253,13.081L18.081,10.253ZM18.081,29.748L26.414,21.414L23.586,18.586L15.253,26.919L18.081,29.748ZM26.414,18.586L18.081,10.253L15.253,13.081L23.586,21.414L26.414,18.586Z" fill="#FFFFFF"/>
<line x1="5" y1="18" x2="25" y2="18" stroke="#FFFFFF" stroke-width="2" stroke-miterlimit="3.999327" stroke-linecap="round" stroke-linejoin="round"/>
<path d="M25,3C23.895,3 23,3.895 23,5C23,6.105 23.895,7 25,7L25,3ZM31.667,5L31.667,3L31.667,5ZM25,33C23.895,33 23,33.895 23,35C23,36.105 23.895,37 25,37L25,33ZM25,7L31.667,7L31.667,3L25,3L25,7ZM31.667,7C32.02,7 32.359,7.14 32.609,7.391L35.438,4.562C34.438,3.562 33.081,3 31.667,3L31.667,7ZM32.609,7.391C32.86,7.641 33,7.98 33,8.333L37,8.333C37,6.919 36.438,5.562 35.438,4.562L32.609,7.391ZM33,8.333L33,31.667L37,31.667L37,8.333L33,8.333ZM33,31.667C33,32.02 32.86,32.359 32.609,32.609L35.438,35.438C36.438,34.438 37,33.081 37,31.667L33,31.667ZM32.609,32.609C32.359,32.86 32.02,33 31.667,33L31.667,37C33.081,37 34.438,36.438 35.438,35.438L32.609,32.609ZM31.667,33L25,33L25,37L31.667,37L31.667,33Z" fill="#FFFFFF"/>
</svg>
