<svg width="292" height="292" viewBox="0 0 292 292" fill="none" xmlns="http://www.w3.org/2000/svg" xmlns:xlink="http://www.w3.org/1999/xlink">
<path d="M292,146C292,226.634 226.634,292 146,292C65.366,292 0,226.634 0,146C0,65.366 65.366,0 146,0C226.634,0 292,65.366 292,146ZM40.88,146C40.88,204.056 87.944,251.12 146,251.12C204.056,251.12 251.12,204.056 251.12,146C251.12,87.944 204.056,40.88 146,40.88C87.944,40.88 40.88,87.944 40.88,146Z" fill="#A3A3A3"/>
<path d="M68.798,22.081C42.629,38.385 22.293,62.555 10.705,91.126C-0.884,119.698 -3.129,151.205 4.29,181.131C11.709,211.058 28.411,237.866 52.003,257.716C75.596,277.566 104.866,289.438 135.621,291.63L138.527,250.854C116.384,249.276 95.309,240.728 78.322,226.436C61.336,212.144 49.31,192.841 43.969,171.294C38.627,149.747 40.244,127.062 48.587,106.491C56.931,85.919 71.573,68.517 90.414,56.779L68.798,22.081Z" fill="#FF2727"/>
<path d="M249.238,42.762C225.684,19.208 194.783,4.417 161.665,0.843C128.546,-2.731 95.202,5.127 67.164,23.114L89.238,57.522C109.425,44.572 133.433,38.914 157.279,41.487C181.124,44.06 203.372,54.71 220.332,71.669L249.238,42.762Z" fill="#52C93F"/>
<path d="M84.965,278.63C118.678,294.144 157.034,296.238 192.235,284.486C227.436,272.734 256.842,248.016 274.472,215.36C292.104,182.704 296.636,144.559 287.15,108.68C277.664,72.801 254.87,41.882 223.402,22.207L201.73,56.869C224.386,71.035 240.798,93.297 247.628,119.13C254.458,144.962 251.194,172.427 238.5,195.939C225.806,219.452 204.634,237.248 179.289,245.71C153.944,254.172 126.328,252.664 102.054,241.494L84.965,278.63Z" fill="#006AFF"/>
</svg>
