<svg width="300" height="268" viewBox="0 0 300 268" fill="none" xmlns="http://www.w3.org/2000/svg" xmlns:xlink="http://www.w3.org/1999/xlink">
<path d="M149.477,48.4C95.461,48.4 52,91.916 52,146C52,200.084 95.461,243.6 149.477,243.6C203.493,243.6 246.954,200.084 246.954,146C246.954,91.916 203.493,48.4 149.477,48.4ZM149.477,235.464C100.335,235.464 60.126,195.204 60.126,146C60.126,96.796 100.335,56.536 149.477,56.536C198.619,56.536 238.828,96.796 238.828,146C238.828,195.204 198.619,235.464 149.477,235.464Z" fill="#00ABFF"/>
<path d="M200.249,169.18C198.215,168.364 195.778,168.776 194.971,170.804C186.038,188.288 168.569,198.864 149.485,198.864C129.989,198.864 112.931,188.288 103.998,170.804C103.183,168.768 100.746,167.96 98.72,169.18C96.687,169.996 95.88,172.436 96.687,174.464C106.838,194.388 126.745,207 149.485,207C171.82,207 192.131,194.396 201.878,174.464C203.097,172.428 202.282,169.988 200.256,169.18L200.249,169.18Z" fill="#00ABFF"/>
<path d="M129.167,125.664C129.167,132.405 123.714,137.864 116.982,137.864C110.25,137.864 104.797,132.405 104.797,125.664C104.797,118.924 110.25,113.464 116.982,113.464C123.714,113.464 129.167,118.924 129.167,125.664Z" fill="#00ABFF"/>
<path d="M194.156,125.664C194.156,132.405 188.704,137.864 181.972,137.864C175.24,137.864 169.787,132.405 169.787,125.664C169.787,118.924 175.24,113.464 181.972,113.464C188.704,113.464 194.156,118.924 194.156,125.664Z" fill="#00ABFF"/>
<path d="M36,230.5C35.172,230.5 34.5,231.172 34.5,232C34.5,232.828 35.172,233.5 36,233.5L36,230.5ZM49.5,220C49.5,219.172 48.828,218.5 48,218.5C47.172,218.5 46.5,219.172 46.5,220L49.5,220ZM60,233.5C60.828,233.5 61.5,232.828 61.5,232C61.5,231.172 60.828,230.5 60,230.5L60,233.5ZM46.5,244C46.5,244.828 47.172,245.5 48,245.5C48.828,245.5 49.5,244.828 49.5,244L46.5,244ZM36,233.5C40.346,233.5 43.825,232.592 46.19,230.246C48.558,227.898 49.5,224.415 49.5,220L46.5,220C46.5,224.069 45.621,226.586 44.078,228.117C42.532,229.65 40.012,230.5 36,230.5L36,233.5ZM46.5,220C46.5,224.413 47.435,227.896 49.799,230.246C52.162,232.593 55.643,233.5 60,233.5L60,230.5C55.975,230.5 53.455,229.649 51.914,228.117C50.374,226.588 49.5,224.071 49.5,220L46.5,220ZM60,230.5C55.633,230.5 52.155,231.437 49.796,233.796C47.437,236.155 46.5,239.633 46.5,244L49.5,244C49.5,239.985 50.372,237.463 51.917,235.917C53.463,234.372 55.985,233.5 60,233.5L60,230.5ZM49.5,244C49.5,239.63 48.556,236.153 46.194,233.795C43.832,231.437 40.356,230.5 36,230.5L36,233.5C40.002,233.5 42.525,234.371 44.074,235.918C45.623,237.464 46.5,239.987 46.5,244L49.5,244Z" fill="#00ABFF"/>
<path d="M216,32.5C215.172,32.5 214.5,33.172 214.5,34C214.5,34.828 215.172,35.5 216,35.5L216,32.5ZM235.5,16C235.5,15.172 234.828,14.5 234,14.5C233.172,14.5 232.5,15.172 232.5,16L235.5,16ZM252,35.5C252.828,35.5 253.5,34.828 253.5,34C253.5,33.172 252.828,32.5 252,32.5L252,35.5ZM232.5,52C232.5,52.828 233.172,53.5 234,53.5C234.828,53.5 235.5,52.828 235.5,52L232.5,52ZM216,35.5C222.435,35.5 227.415,34.153 230.757,30.837C234.102,27.519 235.5,22.536 235.5,16L232.5,16C232.5,22.19 231.166,26.207 228.645,28.707C226.121,31.21 222.101,32.5 216,32.5L216,35.5ZM232.5,16C232.5,22.534 233.887,27.517 237.228,30.836C240.566,34.153 245.547,35.5 252,35.5L252,32.5C245.879,32.5 241.86,31.21 239.342,28.708C236.826,26.209 235.5,22.192 235.5,16L232.5,16ZM252,32.5C245.537,32.5 240.559,33.889 237.224,37.224C233.889,40.559 232.5,45.537 232.5,52L235.5,52C235.5,45.889 236.824,41.867 239.345,39.345C241.867,36.824 245.889,35.5 252,35.5L252,32.5ZM235.5,52C235.5,45.535 234.1,40.557 230.761,37.223C227.422,33.89 222.445,32.5 216,32.5L216,35.5C222.091,35.5 226.114,36.823 228.641,39.346C231.168,41.869 232.5,45.891 232.5,52L235.5,52Z" fill="#00ABFF"/>
<path d="M256,180.5C255.172,180.5 254.5,181.172 254.5,182C254.5,182.828 255.172,183.5 256,183.5L256,180.5ZM269.5,170C269.5,169.172 268.828,168.5 268,168.5C267.172,168.5 266.5,169.172 266.5,170L269.5,170ZM280,183.5C280.828,183.5 281.5,182.828 281.5,182C281.5,181.172 280.828,180.5 280,180.5L280,183.5ZM266.5,194C266.5,194.828 267.172,195.5 268,195.5C268.828,195.5 269.5,194.828 269.5,194L266.5,194ZM256,183.5C260.346,183.5 263.825,182.592 266.19,180.246C268.558,177.898 269.5,174.415 269.5,170L266.5,170C266.5,174.069 265.621,176.586 264.078,178.117C262.532,179.65 260.012,180.5 256,180.5L256,183.5ZM266.5,170C266.5,174.413 267.435,177.896 269.799,180.246C272.162,182.593 275.643,183.5 280,183.5L280,180.5C275.975,180.5 273.455,179.649 271.914,178.117C270.374,176.588 269.5,174.071 269.5,170L266.5,170ZM280,180.5C275.633,180.5 272.155,181.437 269.796,183.796C267.437,186.155 266.5,189.633 266.5,194L269.5,194C269.5,189.985 270.372,187.463 271.917,185.917C273.463,184.372 275.985,183.5 280,183.5L280,180.5ZM269.5,194C269.5,189.63 268.556,186.153 266.194,183.795C263.832,181.437 260.356,180.5 256,180.5L256,183.5C260.002,183.5 262.525,184.371 264.074,185.918C265.623,187.464 266.5,189.987 266.5,194L269.5,194Z" fill="#00ABFF"/>
</svg>
