<svg width="40" height="40" viewBox="0 0 40 40" fill="none" xmlns="http://www.w3.org/2000/svg" xmlns:xlink="http://www.w3.org/1999/xlink">
<path d="M29.523,34.946L35.794,28.772L34.412,27.388L29.523,32.208L27.414,30.055L26.03,31.451L29.523,34.946ZM6.116,10.446L29.216,10.446L29.216,8.238L6.114,8.238L6.116,10.446ZM30.912,40C28.452,40 26.366,39.143 24.652,37.428C22.937,35.714 22.08,33.628 22.08,31.168C22.08,28.708 22.937,26.621 24.652,24.906C26.367,23.191 28.454,22.335 30.912,22.336C33.37,22.338 35.457,23.194 37.174,24.906C38.89,26.618 39.747,28.705 39.744,31.168C39.744,33.626 38.887,35.713 37.174,37.428C35.457,39.143 33.37,40 30.912,40ZM0,37.026L0,0L35.328,0L35.328,16.692C34.969,16.56 34.612,16.447 34.259,16.352C33.904,16.258 33.525,16.185 33.12,16.132L33.12,2.208L2.208,2.208L2.208,33.23L16.216,33.23C16.316,33.834 16.445,34.424 16.604,35.001C16.765,35.578 16.988,36.129 17.273,36.653L17.198,36.728L14.692,34.904L11.72,37.026L8.748,34.904L5.776,37.026L2.802,34.904L0,37.026ZM6.116,27.09L16.514,27.09C16.596,26.685 16.698,26.306 16.818,25.953C16.939,25.599 17.08,25.243 17.242,24.882L6.116,24.882L6.116,27.09ZM6.116,18.768L22.257,18.768C22.978,18.198 23.751,17.724 24.575,17.344C25.399,16.963 26.28,16.701 27.218,16.56L6.114,16.56L6.116,18.768Z" fill="#FFFFFF"/>
</svg>
