<svg width="36" height="16" viewBox="0 0 36 16" fill="none" xmlns="http://www.w3.org/2000/svg" xmlns:xlink="http://www.w3.org/1999/xlink">
<path d="M2,10L0.5,10L2,10ZM10,2L10,0.5L10,2ZM26,2L26,0.5L26,2ZM3.5,10C3.5,8.276 4.185,6.623 5.404,5.404L3.282,3.282C1.501,5.064 0.5,7.48 0.5,10L3.5,10ZM5.404,5.404C6.623,4.185 8.276,3.5 10,3.5L10,0.5C7.48,0.5 5.064,1.501 3.282,3.282L5.404,5.404ZM10,3.5L26,3.5L26,0.5L10,0.5L10,3.5ZM26,3.5C27.724,3.5 29.377,4.185 30.596,5.404L32.718,3.282C30.936,1.501 28.52,0.5 26,0.5L26,3.5ZM30.596,5.404C31.815,6.623 32.5,8.276 32.5,10L35.5,10C35.5,7.48 34.499,5.064 32.718,3.282L30.596,5.404ZM32.5,10C32.5,10.663 32.237,11.299 31.768,11.768L33.889,13.889C34.921,12.858 35.5,11.459 35.5,10L32.5,10ZM31.768,11.768C31.299,12.237 30.663,12.5 30,12.5L30,15.5C31.459,15.5 32.858,14.921 33.889,13.889L31.768,11.768ZM30,12.5L6,12.5L6,15.5L30,15.5L30,12.5ZM6,12.5C5.337,12.5 4.701,12.237 4.232,11.768L2.111,13.889C3.142,14.921 4.541,15.5 6,15.5L6,12.5ZM4.232,11.768C3.763,11.299 3.5,10.663 3.5,10L0.5,10C0.5,11.459 1.079,12.858 2.111,13.889L4.232,11.768Z" fill="#FFFFFF" fill-opacity="0.75"/>
</svg>
