<svg width="36" height="22" viewBox="0 0 36 22" fill="none" xmlns="http://www.w3.org/2000/svg" xmlns:xlink="http://www.w3.org/1999/xlink">
<path d="M12,20.5C12,20.102 12.158,19.721 12.439,19.439C12.721,19.158 13.102,19 13.5,19L22.5,19C22.898,19 23.279,19.158 23.561,19.439C23.842,19.721 24,20.102 24,20.5C24,20.898 23.842,21.279 23.561,21.561C23.279,21.842 22.898,22 22.5,22L13.5,22C13.102,22 12.721,21.842 12.439,21.561C12.158,21.279 12,20.898 12,20.5ZM6,11.5C6,11.102 6.158,10.721 6.439,10.439C6.721,10.158 7.102,10 7.5,10L28.5,10C28.898,10 29.279,10.158 29.561,10.439C29.842,10.721 30,11.102 30,11.5C30,11.898 29.842,12.279 29.561,12.561C29.279,12.842 28.898,13 28.5,13L7.5,13C7.102,13 6.721,12.842 6.439,12.561C6.158,12.279 6,11.898 6,11.5ZM0,2.5C0,2.102 0.158,1.721 0.439,1.439C0.721,1.158 1.102,1 1.5,1L34.5,1C34.898,1 35.279,1.158 35.561,1.439C35.842,1.721 36,2.102 36,2.5C36,2.898 35.842,3.279 35.561,3.561C35.279,3.842 34.898,4 34.5,4L1.5,4C1.102,4 0.721,3.842 0.439,3.561C0.158,3.279 0,2.898 0,2.5Z" fill="#000000"/>
</svg>
