<svg width="34" height="40" viewBox="0 0 34 40" fill="none" xmlns="http://www.w3.org/2000/svg" xmlns:xlink="http://www.w3.org/1999/xlink">
<path d="M31,0.5L5.5,0.5C3.909,0.5 2.383,1.132 1.257,2.257C0.132,3.383 -0.5,4.909 -0.5,6.5L-0.5,38C-0.5,38.398 -0.342,38.779 -0.061,39.061C0.221,39.342 0.602,39.5 1,39.5L28,39.5C28.398,39.5 28.779,39.342 29.061,39.061C29.342,38.779 29.5,38.398 29.5,38C29.5,37.602 29.342,37.221 29.061,36.939C28.779,36.658 28.398,36.5 28,36.5L2.5,36.5C2.5,35.704 2.816,34.941 3.379,34.379C3.941,33.816 4.704,33.5 5.5,33.5L31,33.5C31.398,33.5 31.779,33.342 32.061,33.061C32.342,32.779 32.5,32.398 32.5,32L32.5,2C32.5,1.602 32.342,1.221 32.061,0.939C31.779,0.658 31.398,0.5 31,0.5ZM29.5,30.5L5.5,30.5C4.447,30.498 3.411,30.776 2.5,31.304L2.5,6.5C2.5,5.704 2.816,4.941 3.379,4.379C3.941,3.816 4.704,3.5 5.5,3.5L29.5,3.5L29.5,30.5Z" fill="#FFFFFF"/>
</svg>
