<svg width="36" height="36" viewBox="0 0 36 36" fill="none" xmlns="http://www.w3.org/2000/svg" xmlns:xlink="http://www.w3.org/1999/xlink">
<path d="M15.35,36L15.35,24.75L18.35,24.75L18.35,28.9L36,28.9L36,31.9L18.35,31.9L18.35,36L15.35,36ZM0,31.9L0,28.9L12.35,28.9L12.35,31.9L0,31.9ZM9.35,23.6L9.35,19.5L0,19.5L0,16.5L9.35,16.5L9.35,12.3L12.35,12.3L12.35,23.6L9.35,23.6ZM15.35,19.5L15.35,16.5L36,16.5L36,19.5L15.35,19.5ZM23.65,11.25L23.65,0L26.65,0L26.65,4.1L36,4.1L36,7.1L26.65,7.1L26.65,11.25L23.65,11.25ZM0,7.1L0,4.1L20.65,4.1L20.65,7.1L0,7.1Z" fill="#000000" fill-opacity="0.6"/>
</svg>
