<svg width="36" height="28" viewBox="0 0 36 28" fill="none" xmlns="http://www.w3.org/2000/svg" xmlns:xlink="http://www.w3.org/1999/xlink">
<path d="M2,12C0.895,12 0,12.895 0,14C0,15.105 0.895,16 2,16L2,12ZM34,16C35.105,16 36,15.105 36,14C36,12.895 35.105,12 34,12L34,16ZM2,0C0.895,0 0,0.895 0,2C0,3.105 0.895,4 2,4L2,0ZM34,4C35.105,4 36,3.105 36,2C36,0.895 35.105,0 34,0L34,4ZM2,24C0.895,24 0,24.895 0,26C0,27.105 0.895,28 2,28L2,24ZM34,28C35.105,28 36,27.105 36,26C36,24.895 35.105,24 34,24L34,28ZM2,16L34,16L34,12L2,12L2,16ZM2,4L34,4L34,0L2,0L2,4ZM2,28L34,28L34,24L2,24L2,28Z" fill="#FFFFFF"/>
</svg>
