<svg width="40" height="34" viewBox="0 0 40 34" fill="none" xmlns="http://www.w3.org/2000/svg" xmlns:xlink="http://www.w3.org/1999/xlink">
<path d="M20,2L20,0.5L20,2ZM8,14L6.5,14L8,14ZM2,32L1.168,30.752C0.618,31.119 0.373,31.802 0.564,32.435C0.756,33.067 1.339,33.5 2,33.5L2,32ZM38,32L38,33.5C38.661,33.5 39.244,33.067 39.436,32.435C39.627,31.802 39.382,31.119 38.832,30.752L38,32ZM33.5,14C33.5,10.42 32.078,6.986 29.546,4.454L27.425,6.575C29.394,8.545 30.5,11.215 30.5,14L33.5,14ZM29.546,4.454C27.014,1.922 23.58,0.5 20,0.5L20,3.5C22.785,3.5 25.455,4.606 27.425,6.575L29.546,4.454ZM20,0.5C16.42,0.5 12.986,1.922 10.454,4.454L12.575,6.575C14.545,4.606 17.215,3.5 20,3.5L20,0.5ZM10.454,4.454C7.922,6.986 6.5,10.42 6.5,14L9.5,14C9.5,11.215 10.606,8.545 12.575,6.575L10.454,4.454ZM6.5,14C6.5,20.779 5.049,25.027 3.683,27.532C2.998,28.788 2.326,29.621 1.849,30.125C1.61,30.377 1.418,30.548 1.298,30.648C1.237,30.699 1.194,30.732 1.172,30.748C1.16,30.757 1.154,30.761 1.153,30.762C1.153,30.762 1.154,30.761 1.157,30.76C1.158,30.759 1.159,30.758 1.161,30.756C1.162,30.756 1.163,30.755 1.164,30.754C1.165,30.754 1.166,30.753 1.166,30.753C1.167,30.753 1.168,30.752 2,32C2.832,33.248 2.833,33.247 2.834,33.247C2.834,33.246 2.836,33.246 2.836,33.245C2.838,33.244 2.839,33.243 2.841,33.242C2.844,33.24 2.848,33.237 2.852,33.234C2.86,33.229 2.87,33.222 2.881,33.214C2.903,33.199 2.93,33.179 2.963,33.155C3.028,33.106 3.114,33.039 3.218,32.953C3.425,32.78 3.703,32.529 4.026,32.188C4.674,31.504 5.502,30.462 6.317,28.968C7.951,25.973 9.5,21.221 9.5,14L6.5,14ZM2,33.5L38,33.5L38,30.5L2,30.5L2,33.5ZM38,32C38.832,30.752 38.833,30.753 38.834,30.753C38.834,30.753 38.835,30.754 38.836,30.754C38.837,30.755 38.838,30.756 38.839,30.756C38.841,30.758 38.842,30.759 38.843,30.76C38.846,30.761 38.847,30.762 38.847,30.762C38.846,30.761 38.84,30.757 38.828,30.748C38.806,30.732 38.763,30.699 38.702,30.648C38.582,30.548 38.39,30.377 38.151,30.125C37.674,29.621 37.002,28.788 36.317,27.532C34.951,25.027 33.5,20.779 33.5,14L30.5,14C30.5,21.221 32.049,25.973 33.683,28.968C34.498,30.462 35.326,31.504 35.974,32.188C36.297,32.529 36.575,32.78 36.782,32.953C36.886,33.039 36.972,33.106 37.037,33.155C37.07,33.179 37.097,33.199 37.119,33.214C37.13,33.222 37.14,33.229 37.148,33.234C37.152,33.237 37.156,33.24 37.159,33.242C37.161,33.243 37.162,33.244 37.164,33.245C37.164,33.246 37.166,33.246 37.166,33.247C37.167,33.247 37.168,33.248 38,32Z" fill="#FFFFFF"/>
</svg>
