<svg width="44" height="40" viewBox="0 0 44 40" fill="none" xmlns="http://www.w3.org/2000/svg" xmlns:xlink="http://www.w3.org/1999/xlink">
<path d="M6,2L6,0.5L6,2ZM18,2L19.5,2C19.5,1.172 18.828,0.5 18,0.5L18,2ZM18,38L18,39.5C18.828,39.5 19.5,38.828 19.5,38L18,38ZM2,34L0.5,34L2,34ZM26,2L26,0.5C25.172,0.5 24.5,1.172 24.5,2L26,2ZM38,2L38,0.5L38,2ZM42,16L42,17.5C42.828,17.5 43.5,16.828 43.5,16L42,16ZM26,16L24.5,16C24.5,16.828 25.172,17.5 26,17.5L26,16ZM26,24L26,22.5C25.172,22.5 24.5,23.172 24.5,24L26,24ZM42,24L43.5,24C43.5,23.172 42.828,22.5 42,22.5L42,24ZM26,38L24.5,38C24.5,38.828 25.172,39.5 26,39.5L26,38ZM3.5,6C3.5,5.337 3.763,4.701 4.232,4.232L2.111,2.111C1.079,3.142 0.5,4.541 0.5,6L3.5,6ZM4.232,4.232C4.701,3.763 5.337,3.5 6,3.5L6,0.5C4.541,0.5 3.142,1.079 2.111,2.111L4.232,4.232ZM6,3.5L18,3.5L18,0.5L6,0.5L6,3.5ZM16.5,2L16.5,38L19.5,38L19.5,2L16.5,2ZM18,36.5L6,36.5L6,39.5L18,39.5L18,36.5ZM6,36.5C5.337,36.5 4.701,36.237 4.232,35.768L2.111,37.889C3.142,38.921 4.541,39.5 6,39.5L6,36.5ZM4.232,35.768C3.763,35.299 3.5,34.663 3.5,34L0.5,34C0.5,35.459 1.079,36.858 2.111,37.889L4.232,35.768ZM3.5,34L3.5,6L0.5,6L0.5,34L3.5,34ZM26,3.5L38,3.5L38,0.5L26,0.5L26,3.5ZM38,3.5C38.663,3.5 39.299,3.763 39.768,4.232L41.889,2.111C40.858,1.079 39.459,0.5 38,0.5L38,3.5ZM39.768,4.232C40.237,4.701 40.5,5.337 40.5,6L43.5,6C43.5,4.541 42.921,3.142 41.889,2.111L39.768,4.232ZM40.5,6L40.5,16L43.5,16L43.5,6L40.5,6ZM42,14.5L26,14.5L26,17.5L42,17.5L42,14.5ZM27.5,16L27.5,2L24.5,2L24.5,16L27.5,16ZM26,25.5L42,25.5L42,22.5L26,22.5L26,25.5ZM40.5,24L40.5,34L43.5,34L43.5,24L40.5,24ZM40.5,34C40.5,34.663 40.237,35.299 39.768,35.768L41.889,37.889C42.921,36.858 43.5,35.459 43.5,34L40.5,34ZM39.768,35.768C39.299,36.237 38.663,36.5 38,36.5L38,39.5C39.459,39.5 40.858,38.921 41.889,37.889L39.768,35.768ZM38,36.5L26,36.5L26,39.5L38,39.5L38,36.5ZM27.5,38L27.5,24L24.5,24L24.5,38L27.5,38Z" fill="#FFFFFF" fill-opacity="0.75"/>
</svg>
